<?xml version="1.0" encoding="UTF-8"?>
<svg width="98px" height="100px" viewBox="0 0 98 100" version="1.1" xmlns="http://www.w3.org/2000/svg" xmlns:xlink="http://www.w3.org/1999/xlink">
    <!-- Generator: Sketch 42 (36781) - http://www.bohemiancoding.com/sketch -->
    <title>Shape</title>
    <desc>Created with Sketch.</desc>
    <defs></defs>
    <g id="Page-1" stroke="none" stroke-width="1" fill="none" fill-rule="evenodd">
        <g id="Artboard-6" fill-rule="nonzero" fill="#0068A8">
            <g id="support">
                <path d="M97.587,0 L30.202,0 L30.202,17.504 C21.452,19.678 14.062,25.135 9.324,32.973 C8.608,34.157 8.396,35.547 8.726,36.89 C8.974,37.895 9.504,38.781 10.25,39.464 C8.85,43.011 8.138,46.755 8.138,50.617 L8.138,51.254 C3.681,52.555 0.413,56.671 0.413,61.542 L0.413,73.016 C0.413,78.119 3.998,82.393 8.78,83.47 C10.838,92.389 17.979,97.701 30.102,99.281 C30.748,99.731 31.531,99.999 32.377,99.999 L38.887,99.999 C41.088,99.999 42.879,98.209 42.879,96.008 C42.879,93.807 41.088,92.015 38.887,92.015 L32.377,92.015 C30.175,92.015 28.384,93.807 28.384,96.008 C28.384,96.035 28.391,96.059 28.392,96.086 C20.398,94.669 15.229,91.371 12.759,86.119 C12.816,86.121 12.87,86.136 12.928,86.136 L16.407,86.136 C18.927,86.136 20.978,84.086 20.978,81.565 L20.978,53.182 C20.978,50.662 18.927,48.611 16.407,48.611 L12.928,48.611 C12.276,48.611 11.658,48.753 11.096,49 C11.259,46.155 11.854,43.391 12.872,40.748 C13.16,40.798 13.451,40.832 13.746,40.832 C14.161,40.832 14.579,40.782 14.991,40.679 C16.335,40.348 17.469,39.515 18.185,38.331 C20.994,33.685 25.222,30.198 30.201,28.341 L30.201,41.075 L42.242,41.075 L42.242,55.278 L56.445,41.075 L75.393,41.075 C76.324,43.589 76.876,46.213 77.041,48.902 C76.556,48.726 76.04,48.614 75.494,48.614 L72.014,48.614 C69.494,48.614 67.444,50.663 67.444,53.182 L67.444,81.566 C67.444,84.086 69.494,86.137 72.014,86.137 L75.494,86.137 C77.241,86.137 78.745,85.139 79.513,83.694 C84.36,82.665 88.008,78.356 88.008,73.207 L88.008,61.733 C88.008,56.763 84.604,52.584 80.009,51.374 L80.009,50.618 C80.009,47.345 79.492,44.144 78.478,41.077 L97.586,41.077 L97.586,0 L97.587,0 Z M32.377,94.925 L38.887,94.925 C39.484,94.925 39.97,95.411 39.97,96.008 C39.97,96.605 39.484,97.09 38.887,97.09 L32.377,97.09 C31.779,97.09 31.294,96.605 31.294,96.008 C31.294,95.411 31.78,94.925 32.377,94.925 Z M75.495,83.229 L72.015,83.229 C71.099,83.229 70.355,82.484 70.355,81.568 L70.355,53.183 C70.355,52.269 71.099,51.525 72.015,51.525 L75.495,51.525 C76.272,51.525 76.921,52.064 77.1,52.785 L77.1,77.65 L77.154,77.65 L77.154,81.567 C77.154,82.483 76.409,83.229 75.495,83.229 Z M85.099,61.733 L85.099,73.208 C85.099,76.537 83.002,79.379 80.063,80.502 L80.063,54.439 C83.002,55.562 85.099,58.404 85.099,61.733 Z M3.323,73.017 L3.323,61.542 C3.323,58.296 5.314,55.507 8.138,54.329 L8.138,77.65 C8.138,78.556 8.188,79.426 8.266,80.277 C5.375,79.13 3.323,76.311 3.323,73.017 Z M12.928,51.521 L16.407,51.521 C17.323,51.521 18.068,52.266 18.068,53.182 L18.068,81.566 C18.068,82.482 17.323,83.227 16.407,83.227 L12.928,83.227 C12.356,83.227 11.851,82.936 11.552,82.495 C11.437,81.965 11.341,81.421 11.267,80.861 L11.267,53.182 C11.268,52.266 12.012,51.521 12.928,51.521 Z M15.697,36.827 C15.383,37.346 14.886,37.711 14.297,37.856 C13.709,38 13.1,37.907 12.581,37.593 C12.062,37.279 11.696,36.782 11.552,36.195 C11.407,35.606 11.5,34.996 11.813,34.478 C16.023,27.517 22.51,22.6 30.202,20.499 L30.202,25.271 C24.169,27.246 19.035,31.305 15.697,36.827 Z M94.677,38.167 L55.24,38.167 L45.152,48.255 L45.152,38.167 L33.111,38.167 L33.111,2.91 L94.677,2.91 L94.677,38.167 L94.677,38.167 Z M84.453,17.543 L43.335,17.543 L43.335,14.633 L84.453,14.633 L84.453,17.543 Z M84.453,26.532 L43.335,26.532 L43.335,23.622 L84.453,23.622 L84.453,26.532 Z" id="Shape"></path>
            </g>
        </g>
    </g>
</svg>