<?xml version="1.0" encoding="UTF-8"?>
<svg width="87px" height="95px" viewBox="0 0 87 95" version="1.1" xmlns="http://www.w3.org/2000/svg" xmlns:xlink="http://www.w3.org/1999/xlink">
    <!-- Generator: Sketch 42 (36781) - http://www.bohemiancoding.com/sketch -->
    <title>Artboard 5</title>
    <desc>Created with Sketch.</desc>
    <defs></defs>
    <g id="Page-1" stroke="none" stroke-width="1" fill="none" fill-rule="evenodd">
        <g id="Artboard-5" fill-rule="nonzero" fill="#0068A8">
            <g id="data">
                <path d="M68.127,41.786 L68.127,29.194 C68.127,26.887 66.251,25.011 63.944,25.011 L4.417,25.011 C2.111,25.011 0.236,26.887 0.236,29.194 L0.236,42.215 C0.236,44.522 2.111,46.398 4.417,46.398 L51.396,46.398 C50.516,47.136 49.705,47.951 48.956,48.822 C48.901,48.816 48.849,48.805 48.792,48.805 L4.417,48.805 C2.111,48.805 0.236,50.682 0.236,52.989 L0.236,66.01 C0.236,68.317 2.111,70.193 4.417,70.193 L32.682,70.193 L32.682,83.105 C30.863,83.624 29.429,85.058 28.911,86.878 L14.114,86.878 C13.286,86.878 12.614,87.55 12.614,88.378 C12.614,89.206 13.286,89.878 14.114,89.878 L28.91,89.878 C29.564,92.175 31.678,93.862 34.181,93.862 C36.686,93.862 38.799,92.174 39.453,89.878 L54.248,89.878 C55.076,89.878 55.748,89.206 55.748,88.378 C55.748,87.55 55.076,86.878 54.248,86.878 L39.454,86.878 C38.935,85.058 37.502,83.623 35.682,83.105 L35.682,70.192 L45.398,70.192 C48.488,77.905 56.025,83.375 64.829,83.375 C76.373,83.375 85.765,73.982 85.765,62.437 C85.764,52.018 78.105,43.376 68.127,41.786 Z M4.417,43.398 C3.766,43.398 3.236,42.868 3.236,42.215 L3.236,29.194 C3.236,28.542 3.765,28.011 4.417,28.011 L63.944,28.011 C64.596,28.011 65.127,28.541 65.127,29.194 L65.127,41.514 C65.026,41.513 64.929,41.499 64.828,41.499 C61.613,41.499 58.578,42.249 55.853,43.549 C55.657,43.455 55.44,43.398 55.207,43.398 L4.417,43.398 L4.417,43.398 Z M36.668,88.378 C36.668,89.748 35.553,90.862 34.182,90.862 C32.812,90.862 31.697,89.748 31.697,88.378 C31.697,87.007 32.812,85.891 34.182,85.891 C35.553,85.891 36.668,87.007 36.668,88.378 Z M43.892,62.438 C43.892,64.076 44.1,65.663 44.457,67.193 L4.417,67.193 C3.766,67.193 3.236,66.663 3.236,66.01 L3.236,52.989 C3.236,52.337 3.765,51.805 4.417,51.805 L46.823,51.805 C44.974,54.927 43.892,58.554 43.892,62.438 Z M64.828,80.375 C54.937,80.375 46.891,72.328 46.891,62.437 C46.891,52.546 54.938,44.5 64.828,44.5 C74.718,44.5 82.764,52.547 82.764,62.438 C82.764,72.329 74.718,80.375 64.828,80.375 Z M64.828,49.312 C59.429,49.312 53.963,51.106 53.963,54.535 L53.963,70.342 C53.963,73.771 59.429,75.565 64.828,75.565 C70.226,75.565 75.691,73.771 75.691,70.342 L75.691,54.534 C75.691,51.105 70.227,49.312 64.828,49.312 Z M72.691,70.341 C72.691,70.912 69.987,72.564 64.828,72.564 C59.667,72.564 56.963,70.913 56.963,70.341 L56.963,68.776 C59.042,69.778 61.941,70.296 64.828,70.296 C67.715,70.296 70.612,69.778 72.691,68.776 L72.691,70.341 Z M72.691,65.071 C72.691,65.642 69.987,67.295 64.828,67.295 C59.667,67.295 56.963,65.643 56.963,65.071 L56.963,63.506 C59.042,64.508 61.941,65.026 64.828,65.026 C67.715,65.026 70.612,64.508 72.691,63.506 L72.691,65.071 Z M72.691,59.804 C72.691,60.357 69.902,62.026 64.828,62.026 C59.752,62.026 56.963,60.357 56.963,59.804 L56.963,58.238 C59.042,59.24 61.941,59.758 64.828,59.758 C67.715,59.758 70.612,59.24 72.691,58.238 L72.691,59.804 Z M64.828,56.757 C59.667,56.757 56.963,55.106 56.963,54.534 C56.963,53.98 59.752,52.311 64.828,52.311 C69.902,52.311 72.691,53.98 72.691,54.534 C72.691,55.105 69.987,56.757 64.828,56.757 Z M9.792,13.182 C11.088,13.182 12.143,12.127 12.143,10.83 C12.143,9.533 11.088,8.478 9.792,8.478 C8.496,8.478 7.441,9.533 7.441,10.83 C7.441,12.127 8.496,13.182 9.792,13.182 Z M9.792,10.182 C10.15,10.182 10.441,10.473 10.441,10.83 C10.441,11.187 10.15,11.478 9.792,11.478 C9.434,11.478 9.143,11.187 9.143,10.83 C9.143,10.473 9.434,10.182 9.792,10.182 Z M26.419,13.182 C27.715,13.182 28.77,12.127 28.77,10.83 C28.77,9.533 27.715,8.478 26.419,8.478 C25.123,8.478 24.068,9.533 24.068,10.83 C24.068,12.127 25.123,13.182 26.419,13.182 Z M26.419,10.182 C26.777,10.182 27.068,10.473 27.068,10.83 C27.068,11.187 26.777,11.478 26.419,11.478 C26.061,11.478 25.77,11.187 25.77,10.83 C25.77,10.473 26.061,10.182 26.419,10.182 Z M18.105,13.182 C19.402,13.182 20.457,12.127 20.457,10.83 C20.457,9.533 19.402,8.478 18.105,8.478 C16.808,8.478 15.753,9.533 15.753,10.83 C15.753,12.127 16.809,13.182 18.105,13.182 Z M18.105,10.182 C18.462,10.182 18.753,10.473 18.753,10.83 C18.753,11.187 18.462,11.478 18.105,11.478 C17.748,11.478 17.457,11.187 17.457,10.83 C17.457,10.473 17.748,10.182 18.105,10.182 Z M18.105,33.354 C16.808,33.354 15.753,34.409 15.753,35.705 C15.753,37.002 16.808,38.057 18.105,38.057 C19.402,38.057 20.457,37.002 20.457,35.705 C20.457,34.409 19.402,33.354 18.105,33.354 Z M18.105,36.354 C17.748,36.354 17.457,36.063 17.457,35.705 C17.457,35.348 17.748,35.057 18.105,35.057 C18.462,35.057 18.753,35.348 18.753,35.705 C18.754,36.063 18.463,36.354 18.105,36.354 Z M18.105,61.851 C19.402,61.851 20.457,60.796 20.457,59.499 C20.457,58.203 19.402,57.148 18.105,57.148 C16.808,57.148 15.753,58.203 15.753,59.499 C15.754,60.796 16.809,61.851 18.105,61.851 Z M18.105,58.851 C18.462,58.851 18.753,59.142 18.753,59.499 C18.753,59.857 18.462,60.148 18.105,60.148 C17.748,60.148 17.457,59.857 17.457,59.499 C17.457,59.142 17.748,58.851 18.105,58.851 Z M9.792,61.851 C11.088,61.851 12.143,60.796 12.143,59.499 C12.143,58.203 11.088,57.148 9.792,57.148 C8.496,57.148 7.441,58.203 7.441,59.499 C7.441,60.796 8.496,61.851 9.792,61.851 Z M9.792,58.851 C10.15,58.851 10.441,59.142 10.441,59.499 C10.441,59.857 10.15,60.148 9.792,60.148 C9.434,60.148 9.143,59.857 9.143,59.499 C9.143,59.142 9.434,58.851 9.792,58.851 Z M26.419,61.851 C27.715,61.851 28.77,60.796 28.77,59.499 C28.77,58.203 27.715,57.148 26.419,57.148 C25.123,57.148 24.068,58.203 24.068,59.499 C24.068,60.796 25.123,61.851 26.419,61.851 Z M26.419,58.851 C26.777,58.851 27.068,59.142 27.068,59.499 C27.068,59.857 26.777,60.148 26.419,60.148 C26.061,60.148 25.77,59.857 25.77,59.499 C25.77,59.142 26.061,58.851 26.419,58.851 Z M26.419,33.354 C25.123,33.354 24.068,34.409 24.068,35.705 C24.068,37.002 25.123,38.057 26.419,38.057 C27.715,38.057 28.77,37.002 28.77,35.705 C28.77,34.409 27.715,33.354 26.419,33.354 Z M26.419,36.354 C26.061,36.354 25.77,36.063 25.77,35.705 C25.77,35.348 26.061,35.057 26.419,35.057 C26.777,35.057 27.068,35.348 27.068,35.705 C27.068,36.063 26.777,36.354 26.419,36.354 Z M9.792,33.354 C8.496,33.354 7.441,34.409 7.441,35.705 C7.441,37.002 8.496,38.057 9.792,38.057 C11.088,38.057 12.143,37.002 12.143,35.705 C12.143,34.409 11.088,33.354 9.792,33.354 Z M9.792,36.354 C9.434,36.354 9.143,36.063 9.143,35.705 C9.143,35.348 9.434,35.057 9.792,35.057 C10.15,35.057 10.441,35.348 10.441,35.705 C10.441,36.063 10.15,36.354 9.792,36.354 Z M4.417,21.523 L63.944,21.523 C66.251,21.523 68.127,19.647 68.127,17.34 L68.127,4.319 C68.127,2.013 66.251,0.137 63.944,0.137 L4.417,0.137 C2.111,0.137 0.236,2.013 0.236,4.319 L0.236,17.34 C0.236,19.647 2.111,21.523 4.417,21.523 Z M3.236,4.319 C3.236,3.668 3.765,3.137 4.417,3.137 L63.944,3.137 C64.596,3.137 65.127,3.667 65.127,4.319 L65.127,17.34 C65.127,17.992 64.597,18.523 63.944,18.523 L4.417,18.523 C3.766,18.523 3.236,17.993 3.236,17.34 L3.236,4.319 Z" id="Shape"></path>
            </g>
        </g>
    </g>
</svg>