<?xml version="1.0" encoding="UTF-8"?>
<svg width="136px" height="57px" viewBox="0 0 136 57" version="1.1" xmlns="http://www.w3.org/2000/svg" xmlns:xlink="http://www.w3.org/1999/xlink">
    <!-- Generator: Sketch 42 (36781) - http://www.bohemiancoding.com/sketch -->
    <title>price_99</title>
    <desc>Created with Sketch.</desc>
    <defs></defs>
    <g id="Page-1" stroke="none" stroke-width="1" fill="none" fill-rule="evenodd">
        <g id="price_99" fill-rule="nonzero" fill="#2D3238">
            <g id="Page-1">
                <g id="WINNER">
                    <g id="Group">
                        <g id="Our-free-plan-works--+-Requests-per-month-+-$0">
                            <g id="ho">
                                <path d="M94.95,8.68 C98.3366836,13.5333576 100.03,20.1732912 100.03,28.6 C100.03,37.4533776 98.3100172,44.1999768 94.87,48.84 C91.4299828,53.4800232 86.643364,55.8 80.51,55.8 C75.9233104,55.8 72.1366816,54.7866768 69.15,52.76 C66.1633184,50.7333232 64.0833392,47.8800184 62.91,44.2 L66.91,42.12 C67.6566704,45.2666824 69.1099892,47.7199912 71.27,49.48 C73.4300108,51.2400088 76.4833136,52.12 80.43,52.12 C86.0833616,52.12 90.1633208,49.853356 92.67,45.32 C95.1766792,40.786644 96.43,34.786704 96.43,27.32 C96.43,25.98666 96.2700016,24.1466784 95.95,21.8 L95.71,21.8 C95.4966656,24.6266808 94.6166744,27.0133236 93.07,28.96 C91.5233256,30.9066764 89.5766784,32.3599952 87.23,33.32 C84.8833216,34.2800048 82.4833456,34.76 80.03,34.76 C74.8033072,34.76 70.6166824,33.2533484 67.47,30.24 C64.3233176,27.2266516 62.75,23.1600256 62.75,18.04 C62.75,12.973308 64.349984,8.9333484 67.55,5.92 C70.750016,2.9066516 75.0433064,1.4 80.43,1.4 C86.7233648,1.4 91.5633164,3.8266424 94.95,8.68 L94.95,8.68 Z M70.55,8.68 C68.1233212,11.0266784 66.91,14.19998 66.91,18.2 C66.91,22.0933528 68.109988,25.1999884 70.51,27.52 C72.910012,29.8400116 76.1899792,31 80.35,31 C82.9633464,31 85.2966564,30.4133392 87.35,29.24 C89.4033436,28.0666608 91.0033276,26.5066764 92.15,24.56 C93.2966724,22.6133236 93.87,20.4933448 93.87,18.2 C93.87,14.3599808 92.6300124,11.2266788 90.15,8.8 C87.6699876,6.3733212 84.4566864,5.16 80.51,5.16 C76.2966456,5.16 72.9766788,6.3333216 70.55,8.68 L70.55,8.68 Z M50.95,8.68 C54.3366836,13.5333576 56.03,20.1732912 56.03,28.6 C56.03,37.4533776 54.3100172,44.1999768 50.87,48.84 C47.4299828,53.4800232 42.643364,55.8 36.51,55.8 C31.9233104,55.8 28.1366816,54.7866768 25.15,52.76 C22.1633184,50.7333232 20.0833392,47.8800184 18.91,44.2 L22.91,42.12 C23.6566704,45.2666824 25.1099892,47.7199912 27.27,49.48 C29.4300108,51.2400088 32.4833136,52.12 36.43,52.12 C42.0833616,52.12 46.1633208,49.853356 48.67,45.32 C51.1766792,40.786644 52.43,34.786704 52.43,27.32 C52.43,25.98666 52.2700016,24.1466784 51.95,21.8 L51.71,21.8 C51.4966656,24.6266808 50.6166744,27.0133236 49.07,28.96 C47.5233256,30.9066764 45.5766784,32.3599952 43.23,33.32 C40.8833216,34.2800048 38.4833456,34.76 36.03,34.76 C30.8033072,34.76 26.6166824,33.2533484 23.47,30.24 C20.3233176,27.2266516 18.75,23.1600256 18.75,18.04 C18.75,12.973308 20.349984,8.9333484 23.55,5.92 C26.750016,2.9066516 31.0433064,1.4 36.43,1.4 C42.7233648,1.4 47.5633164,3.8266424 50.95,8.68 L50.95,8.68 Z M26.55,8.68 C24.1233212,11.0266784 22.91,14.19998 22.91,18.2 C22.91,22.0933528 24.109988,25.1999884 26.51,27.52 C28.910012,29.8400116 32.1899792,31 36.35,31 C38.9633464,31 41.2966564,30.4133392 43.35,29.24 C45.4033436,28.0666608 47.0033276,26.5066764 48.15,24.56 C49.2966724,22.6133236 49.87,20.4933448 49.87,18.2 C49.87,14.3599808 48.6300124,11.2266788 46.15,8.8 C43.6699876,6.3733212 40.4566864,5.16 36.51,5.16 C32.2966456,5.16 28.9766788,6.3333216 26.55,8.68 L26.55,8.68 Z" id="49"></path>
                                <path d="M106.86,56.05 L105.36,56.05 L109.83,44.125 L111.33,44.125 L106.86,56.05 Z M123.3,55 L121.83,55 L121.83,49.27 L121.935,46.54 L121.92,46.54 L118.905,55 L117.57,55 L114.555,46.54 L114.54,46.54 L114.66,49.27 L114.66,55 L113.175,55 L113.175,45.1 L115.56,45.1 L117.555,50.83 L118.245,53.185 L118.275,53.185 L118.98,50.83 L120.96,45.1 L123.3,45.1 L123.3,55 Z M132.8325,45.565 C133.537504,45.9750021 134.079998,46.5649961 134.46,47.335 C134.840002,48.1050039 135.03,49.0099948 135.03,50.05 C135.03,51.0900052 134.840002,51.9949961 134.46,52.765 C134.079998,53.5350038 133.537504,54.1249979 132.8325,54.535 C132.127496,54.945002 131.300005,55.15 130.35,55.15 C129.399995,55.15 128.575004,54.945002 127.875,54.535 C127.174996,54.1249979 126.635002,53.5350038 126.255,52.765 C125.874998,51.9949961 125.685,51.0900052 125.685,50.05 C125.685,49.0099948 125.874998,48.1050039 126.255,47.335 C126.635002,46.5649961 127.174996,45.9750021 127.875,45.565 C128.575004,45.1549979 129.399995,44.95 130.35,44.95 C131.300005,44.95 132.127496,45.1549979 132.8325,45.565 L132.8325,45.565 Z M128.16,47.32 C127.629997,47.9700033 127.365,48.8799942 127.365,50.05 C127.365,51.2200059 127.629997,52.1299968 128.16,52.78 C128.690003,53.4300032 129.419995,53.755 130.35,53.755 C131.290005,53.755 132.024997,53.4300032 132.555,52.78 C133.085003,52.1299968 133.35,51.2200059 133.35,50.05 C133.35,48.8799942 133.085003,47.9700033 132.555,47.32 C132.024997,46.6699967 131.290005,46.345 130.35,46.345 C129.419995,46.345 128.690003,46.6699967 128.16,47.32 L128.16,47.32 Z" id="/MO"></path>
                                <path d="M6.417,17.977 C3.70298643,17.7469988 1.87833801,16.5433442 0.943,14.366 L2.714,13.078 C2.92866774,13.8600039 3.37332996,14.5154974 4.048,15.0445 C4.72267004,15.5735026 5.51232881,15.9146659 6.417,16.068 L6.417,11.284 C5.40499494,11.0693323 4.55783674,10.831668 3.8755,10.571 C3.19316325,10.310332 2.62583559,9.9155026 2.1735,9.3865 C1.72116441,8.8574974 1.495,8.1560044 1.495,7.282 C1.495,6.1013274 1.93582893,5.1008374 2.8175,4.2805 C3.69917107,3.4601626 4.89899241,2.9810007 6.417,2.843 L6.417,0.612 L8.188,0.612 L8.188,2.866 C9.36867257,2.9580005 10.3423295,3.2493309 11.109,3.74 C11.8756705,4.2306691 12.5503304,4.9513286 13.133,5.902 L11.5,7.397 C11.1013313,6.5689959 10.6451692,5.9480021 10.1315,5.534 C9.61783077,5.1199979 8.97000391,4.8670005 8.188,4.775 L8.188,9.628 C9.20000506,9.8426677 10.0471633,10.0841653 10.7295,10.3525 C11.4118367,10.6208347 11.9791644,11.0271639 12.4315,11.5715 C12.8838356,12.1158361 13.11,12.8326622 13.11,13.722 C13.11,14.918006 12.6615045,15.8954962 11.7645,16.6545 C10.8674955,17.4135038 9.67534077,17.8543327 8.188,17.977 L8.188,20.208 L6.417,20.208 L6.417,17.977 Z M6.417,4.775 C5.55832904,4.8670005 4.90666889,5.1161646 4.462,5.5225 C4.01733111,5.9288354 3.795,6.4616634 3.795,7.121 C3.795,7.719003 4.0211644,8.1751651 4.4735,8.4895 C4.92583559,8.8038349 5.57366245,9.0606657 6.417,9.26 L6.417,4.775 Z M10.833,13.883 C10.833,13.2696636 10.6068356,12.8020016 10.1545,12.48 C9.7021644,12.1579984 9.04667096,11.8896677 8.188,11.675 L8.188,16.091 C9.95134215,15.9223325 10.833,15.1863398 10.833,13.883 L10.833,13.883 Z" id="$"></path>
                            </g>
                        </g>
                    </g>
                </g>
            </g>
        </g>
    </g>
</svg>