<?xml version="1.0" encoding="UTF-8"?>
<svg width="90px" height="92px" viewBox="0 0 90 92" version="1.1" xmlns="http://www.w3.org/2000/svg" xmlns:xlink="http://www.w3.org/1999/xlink">
    <!-- Generator: Sketch 42 (36781) - http://www.bohemiancoding.com/sketch -->
    <title>Artboard 4</title>
    <desc>Created with Sketch.</desc>
    <defs></defs>
    <g id="Page-1" stroke="none" stroke-width="1" fill="none" fill-rule="evenodd">
        <g id="Artboard-4" fill="#0068A8">
            <g id="puzzle">
                <g id="Group" transform="translate(0.000000, 0.637840)">
                    <path d="M28.003745,0.3629 C26.251689,0.3629 25.221111,0.63876 24.700443,1.04617 C24.179812,1.45358 23.95997,2.05011 23.95997,3.21042 C23.95997,4.3317 24.278121,5.02962 24.659895,5.59499 C25.041632,6.16033 25.507655,6.51992 25.849622,7.11222 C26.006212,7.38352 26.250873,7.78903 26.343766,8.33311 C26.436696,8.87722 26.340066,9.54391 25.956872,10.21048 C25.503871,10.9951 24.722182,11.37951 24.059949,11.65018 C23.397679,11.92091 22.816281,12.04701 22.694118,12.07261 L22.618778,12.08851 L11.741583,12.08851 L11.741583,22.72227 C11.750083,22.76417 11.836813,23.19642 12.046638,23.73663 C12.266332,24.30238 12.643839,24.87376 12.894361,25.0184 C13.310895,25.25898 13.551771,25.26673 13.779775,25.22782 C14.007815,25.18892 14.238897,25.06693 14.50871,24.91115 C14.689784,24.80661 15.195465,24.2783 15.93757,23.77722 C16.679526,23.27614 17.731176,22.82295 19.152468,22.82295 C20.534547,22.82295 21.73303,23.1723 22.484743,24.13299 C23.236456,25.09367 23.483899,26.45657 23.483899,28.35068 C23.483899,30.24482 23.236456,31.60698 22.484743,32.56766 C21.73303,33.52835 20.534547,33.8784 19.152468,33.8784 C17.731176,33.8784 16.679526,33.42522 15.93757,32.92417 C15.195502,32.42309 14.689784,31.89474 14.50871,31.7902 C14.238934,31.63447 14.007815,31.51253 13.779775,31.47357 C13.551771,31.43467 13.310895,31.44237 12.894361,31.68295 C12.643839,31.82763 12.266332,32.39827 12.046638,32.96401 C11.836813,33.50423 11.750115,33.93642 11.741583,33.97842 L11.741583,44.61285 L22.545584,44.61285 L22.617334,44.62685 C22.617334,44.62685 23.22852,44.74735 23.927369,45.01875 C24.189391,45.12055 24.472596,45.23845 24.749754,45.38975 C25.211622,45.64195 25.656425,45.98745 25.95688,46.50775 C26.00466,46.59075 26.04822,46.67395 26.087279,46.75705 C26.098779,46.78205 26.107679,46.80605 26.118439,46.83105 C26.363916,47.38695 26.421677,47.92925 26.343772,48.38525 C26.297402,48.65705 26.212853,48.89435 26.120628,49.09745 L26.120628,49.09745 C26.028548,49.30065 25.928016,49.46955 25.849628,49.60545 C25.507661,50.19775 25.041638,50.55725 24.659901,51.12265 C24.325835,51.61735 24.040553,52.21335 23.974445,53.10585 C23.965145,53.23335 23.959975,53.36705 23.959975,53.50725 C23.959975,54.66755 24.179817,55.26335 24.700448,55.67075 C25.09094,55.97635 25.768569,56.20865 26.821999,56.30545 C27.17313,56.33745 27.565736,56.35445 28.00375,56.35445 C28.222776,56.35445 28.430746,56.35445 28.627624,56.34145 C30.005623,56.28345 30.850749,56.02695 31.306347,55.67055 C31.826978,55.26315 32.047562,54.66735 32.047562,53.50695 C32.047562,52.38575 31.729411,51.68775 31.347637,51.12245 C30.9659,50.55705 30.499877,50.19745 30.15791,49.60515 C30.001246,49.33385 29.756585,48.92835 29.663767,48.38425 C29.582447,47.90825 29.644847,47.33845 29.919519,46.75685 C29.958769,46.67385 30.002579,46.59025 30.05066,46.50695 C30.351078,45.98655 30.795918,45.64115 31.257786,45.38885 C31.534944,45.23755 31.818112,45.11975 32.080171,45.01795 C32.77902,44.74655 33.390206,44.62595 33.390206,44.62595 L33.461916,44.61195 L44.196395,44.61195 L44.265955,44.61195 L44.265955,33.97745 C44.257455,33.93555 44.169985,33.50327 43.960195,32.96305 C43.740465,32.39731 43.363699,31.82674 43.113177,31.68198 C42.696643,31.44144 42.455767,31.43365 42.227726,31.4726 C41.999723,31.5116 41.768604,31.6335 41.498828,31.78923 C41.317754,31.89378 40.812036,32.42212 40.069968,32.9232 C39.977228,32.9858 39.879805,33.04759 39.777266,33.10795 C39.674691,33.16835 39.566662,33.22755 39.454107,33.28402 C38.778778,33.62272 37.920743,33.87743 36.85507,33.87743 C35.472991,33.87743 34.274508,33.52738 33.522795,32.56669 C32.771082,31.60601 32.523602,30.24385 32.523602,28.34971 C32.523602,26.45561 32.771082,25.09271 33.522795,24.13202 C34.18054,23.29142 35.180141,22.91866 36.345717,22.83868 C36.512212,22.82718 36.682306,22.82198 36.85507,22.82198 C37.032732,22.82198 37.204755,22.82898 37.370953,22.84238 C37.703424,22.86908 38.01319,22.92098 38.301329,22.99166 C38.589431,23.06226 38.855571,23.152 39.101233,23.25394 C39.224064,23.30494 39.341515,23.35904 39.454107,23.4155 L39.454107,23.4155 C39.679254,23.52839 39.883774,23.65033 40.069263,23.77565 C40.625842,24.15138 41.049054,24.5432 41.302507,24.75959 C41.386907,24.83169 41.452864,24.88417 41.498123,24.91029 C41.767936,25.06606 41.999018,25.188 42.227022,25.22695 C42.34106,25.24625 42.457956,25.25405 42.598742,25.22695 C42.669112,25.21325 42.745872,25.19135 42.830603,25.15735 C42.915333,25.12325 43.008339,25.07765 43.112473,25.0175 C43.362957,24.87285 43.73976,24.30147 43.95949,23.73573 C44.169278,23.19547 44.256718,22.76325 44.26525,22.72136 L44.26525,12.0876 L33.388056,12.0876 L33.312676,12.0717 C33.19055,12.0461 32.609116,11.92008 31.946882,11.64927 C31.284649,11.37857 30.502961,10.9942 30.049959,10.20958 C29.666776,9.54304 29.570061,8.87632 29.663066,8.3322 C29.755886,7.78813 30.000545,7.38265 30.157209,7.11131 C30.499177,6.51901 30.9652,6.15942 31.346936,5.59409 C31.72871,5.02872 32.046861,4.33079 32.046861,3.20951 C32.046861,2.0492 31.826277,1.45267 31.305646,1.04526 C30.784978,0.63785 29.75518,0.36199 28.003049,0.36199 L28.003745,0.3629 Z" id="Shape"></path>
                    <path d="M45.749863,12.08856 L45.749863,22.89256 L45.735393,22.96356 C45.735393,22.96356 45.667693,23.30745 45.519484,23.77437 C45.470074,23.92999 45.411974,24.0996 45.344123,24.2743 C45.242363,24.53639 45.124503,24.81956 44.973144,25.09668 C44.872275,25.28147 44.75627,25.46395 44.620307,25.63504 C44.416343,25.89172 44.167342,26.12362 43.855164,26.30381 C43.18859,26.69003 42.521905,26.78293 41.977791,26.69003 C41.433715,26.59713 41.028161,26.35318 40.756902,26.19659 C40.164598,25.85463 39.805046,25.3886 39.239638,25.00687 C38.674341,24.62509 37.976308,24.30691 36.855101,24.30691 C35.694718,24.30691 35.098964,24.52678 34.691555,25.04742 C34.335082,25.50301 34.079107,26.34877 34.020604,27.72688 C34.012104,27.92376 34.007624,28.13173 34.007624,28.35072 C34.007624,30.10281 34.284225,31.13265 34.691633,31.65331 C35.099042,32.17395 35.694796,32.39453 36.855179,32.39453 C37.976386,32.39453 38.674456,32.07638 39.239716,31.6946 C39.805087,31.31283 40.164676,30.84684 40.75698,30.50488 C41.028276,30.34821 41.433793,30.10363 41.97787,30.0107 C42.521983,29.9178 43.188669,30.0147 43.855242,30.39763 C44.687755,30.8783 45.072088,31.72833 45.343496,32.42714 C45.614904,33.12599 45.735472,33.73717 45.735472,33.73717 L45.749942,33.80887 L45.749942,44.61288 L56.380065,44.61288 C56.489281,44.58888 56.93579,44.49038 57.437205,44.28538 C57.963029,44.07048 58.468561,43.72228 58.610275,43.47678 C58.850817,43.06028 58.858608,42.81938 58.819655,42.59134 C58.780735,42.36334 58.658799,42.13225 58.503025,41.86244 C58.398484,41.68137 57.870173,41.17565 57.369093,40.43358 C56.868013,39.69155 56.414826,38.63998 56.414826,37.21868 C56.414826,35.8366 56.764176,34.63734 57.724861,33.8857 C58.210472,33.50567 58.799474,33.25552 59.507301,33.10027 C60.215313,32.93667 61.043485,32.87056 62.012109,32.87056 C63.90625,32.87056 65.26915,33.1173 66.229835,33.86901 C67.190484,34.62076 67.539834,35.81995 67.539834,37.20203 C67.539834,38.62328 67.086647,39.67486 66.585566,40.41692 C66.084523,41.15899 65.556176,41.66471 65.451634,41.84578 C65.295897,42.11556 65.17392,42.34668 65.135004,42.57468 C65.096054,42.80269 65.103844,43.04358 65.344384,43.46008 C65.489029,43.71058 66.059705,44.08738 66.625447,44.30708 C67.166852,44.51738 67.602603,44.60478 67.642743,44.61288 L78.274313,44.61288 L78.274313,33.73497 L78.290263,33.65967 C78.315863,33.53751 78.441251,32.95681 78.711954,32.29458 C78.982694,31.63235 79.367807,30.85066 80.152426,30.39766 C80.818963,30.01444 81.485685,29.91783 82.029762,30.01073 C82.573838,30.10363 82.979355,30.34824 83.250651,30.50491 C83.842955,30.84687 84.202544,31.31286 84.767915,31.69463 C85.333249,32.07641 86.031245,32.39456 87.152452,32.39456 C88.312835,32.39456 88.908589,32.17398 89.315998,31.65334 C89.723406,31.13268 90.000008,30.10284 90.000008,28.35075 C90.000008,26.59869 89.723406,25.56811 89.315998,25.04745 C88.908589,24.52681 88.312835,24.30694 87.152452,24.30694 C86.031245,24.30694 85.333249,24.62512 84.767915,25.0069 C84.202544,25.38863 83.842955,25.85466 83.250651,26.19662 C82.979392,26.35321 82.573838,26.59713 82.029762,26.69006 C81.485685,26.78296 80.818963,26.69006 80.152426,26.30384 C79.36777,25.85091 78.982694,25.06918 78.711954,24.40695 C78.441251,23.74468 78.315861,23.16328 78.290263,23.04112 L78.274313,22.96572 L78.274313,12.08853 L67.639812,12.08853 C67.597412,12.09753 67.165331,12.18393 66.625447,12.39359 C66.059705,12.61328 65.489029,12.99079 65.344384,13.24131 C65.103842,13.65784 65.096051,13.89872 65.135004,14.12672 C65.173924,14.35473 65.295897,14.58584 65.451634,14.85566 C65.556176,15.03673 66.084523,15.54241 66.585566,16.28448 C67.086647,17.02655 67.539834,18.07812 67.539834,19.49941 C67.539834,20.88149 67.190484,22.07994 66.229835,22.83169 C65.26915,23.5834 63.90625,23.83085 62.012109,23.83085 C60.117968,23.83085 58.755105,23.5834 57.79442,22.83169 C56.833734,22.07994 56.484384,20.88149 56.484384,19.49941 C56.484384,18.07812 56.937571,17.02655 57.438651,16.28448 C57.939732,15.54241 58.468042,15.03673 58.572584,14.85566 C58.728358,14.58588 58.850298,14.35473 58.889214,14.12672 C58.928164,13.89872 58.920374,13.65784 58.679834,13.24131 C58.535189,12.99079 57.964513,12.61328 57.398808,12.39359 C56.858887,12.18387 56.426845,12.09743 56.384405,12.08853 L45.749942,12.08853 L45.749863,12.08856 Z" id="Shape"></path>
                    <path d="M61.942471,34.37115 C61.076979,34.37115 60.388814,34.43945 59.849931,34.55664 C59.335199,34.67583 58.960696,34.84062 58.708728,35.03776 C58.188097,35.44517 57.968218,36.04163 57.968218,37.20205 C57.968218,38.32325 58.286406,39.02125 58.668143,39.58658 C59.049916,40.15195 59.515939,40.51154 59.857907,41.10385 C60.014534,41.37514 60.259157,41.78066 60.35205,42.32474 C60.44498,42.86881 60.34835,43.5355 59.96512,44.2021 C59.48448,45.0346 58.634458,45.419 57.935609,45.6904 C57.647099,45.8024 57.385745,45.8826 57.163974,45.9454 C57.138004,45.9554 57.118124,45.9594 57.093674,45.9664 C56.840778,46.0364 56.694241,46.0669 56.664749,46.0729 C56.659549,46.0729 56.636929,46.0829 56.632849,46.0829 L56.625849,46.0829 L56.557739,46.0969 L45.750103,46.0969 L45.750103,56.7959 C45.773843,56.9059 45.872637,57.3523 46.077603,57.8537 C46.292547,58.3796 46.640748,58.8851 46.886224,59.0268 C47.185307,59.1991 47.392943,59.2493 47.571644,59.2507 C47.621874,59.2507 47.671144,59.2407 47.718736,59.2367 C47.94674,59.1977 48.177859,59.0759 48.447672,58.9201 C48.628746,58.8156 49.134427,58.2865 49.876495,57.7854 C50.618562,57.2843 51.670137,56.8319 53.091392,56.8319 L53.120332,56.8319 L53.144072,56.8319 C54.526152,56.8319 55.724671,57.1813 56.476348,58.1419 C57.228061,59.1026 57.475504,60.4655 57.475541,62.3596 C57.475541,64.2537 57.228098,65.6159 56.476348,66.5766 C55.724634,67.5373 54.526189,67.8873 53.144072,67.8874 L53.120332,67.8874 L53.091392,67.8874 C51.670137,67.8874 50.618562,67.4342 49.876495,66.9331 C49.134427,66.432 48.628746,65.9037 48.447672,65.7992 C48.177896,65.6434 47.94674,65.5214 47.718736,65.4825 C47.668546,65.4725 47.616829,65.4695 47.563705,65.4675 C47.386859,65.4675 47.181634,65.5205 46.886224,65.6914 C46.640748,65.8331 46.292547,66.3387 46.077603,66.8645 C45.872637,67.3659 45.773475,67.8131 45.750103,67.9216 L45.750103,78.622 L56.484545,78.622 L56.556295,78.636 C56.556295,78.636 57.167481,78.7566 57.866293,79.028 C58.565142,79.2994 59.415165,79.6844 59.895804,80.517 C60.279025,81.1835 60.375664,81.8503 60.282734,82.3943 C60.189804,82.9384 59.945181,83.344 59.788591,83.6152 C59.446623,84.2075 58.980601,84.5671 58.598827,85.1325 C58.21709,85.6978 57.898902,86.3958 57.898902,87.517 C57.898902,88.6774 58.118781,89.2732 58.639412,89.6806 C59.16008,90.088 60.190658,90.3646 61.942714,90.3646 C63.694807,90.3646 64.725385,90.088 65.246016,89.6806 C65.766684,89.2732 65.986526,88.6774 65.986526,87.517 C65.986526,86.3958 65.668337,85.6978 65.286601,85.1325 C64.904827,84.5671 64.438841,84.2075 64.096873,83.6152 C63.940209,83.3439 63.695623,82.9384 63.602693,82.3943 C63.509803,81.8503 63.606393,81.1835 63.989624,80.517 C64.4703,79.6844 65.320286,79.2994 66.019135,79.028 C66.717946,78.7566 67.329133,78.636 67.329133,78.636 L67.400883,78.622 L78.204921,78.622 L78.204921,67.9875 C78.196421,67.9455 78.108951,67.5135 77.899124,66.9731 C77.679505,66.4077 77.302665,65.837 77.052106,65.6921 C76.635572,65.4516 76.394695,65.4438 76.166692,65.4827 C75.938689,65.5217 75.707569,65.6436 75.437794,65.7994 C75.25672,65.9039 74.751002,66.4322 74.008934,66.9333 C73.266866,67.4344 72.215291,67.8876 70.794036,67.8876 C69.411919,67.8876 68.213474,67.5375 67.461761,66.5768 C66.71001,65.6161 66.462568,64.254 66.462568,62.3598 C66.462568,60.4657 66.71001,59.1028 67.461761,58.1421 C68.213474,57.1815 69.411919,56.8321 70.794036,56.8321 C72.215291,56.8321 73.266866,57.2845 74.008934,57.7856 C74.751002,58.2867 75.25672,58.8158 75.437794,58.9203 C75.707569,59.0761 75.938689,59.198 76.166692,59.2369 C76.394695,59.2759 76.635609,59.2679 77.052106,59.0276 C77.302628,58.8829 77.67943,58.3115 77.899124,57.7458 C78.108949,57.2055 78.196389,56.7733 78.204921,56.7314 L78.204921,46.0977 L67.327689,46.0977 L67.252349,46.0817 C67.130223,46.0557 66.548788,45.93 65.886555,45.6593 C65.224322,45.3886 64.442633,45.0042 63.989632,44.2196 C63.606411,43.553 63.509808,42.88632 63.602701,42.34221 C63.695631,41.79813 63.940217,41.39262 64.096881,41.12132 C64.438849,40.52902 64.904835,40.16943 65.286609,39.60409 C65.668345,39.03872 65.986534,38.34073 65.986534,37.21952 C65.986534,36.05914 65.766692,35.46264 65.246024,35.05523 C64.725393,34.64786 63.694815,34.37196 61.942722,34.37196 L61.942471,34.37115 Z" id="Shape"></path>
                    <path d="M56.960344,45.2324 C56.939564,45.2424 56.914894,45.2454 56.895124,45.2514 C56.917754,45.2414 56.936264,45.2394 56.960344,45.2324 Z" id="Shape"></path>
                    <path d="M11.74232,46.0968 L11.74232,56.9001 L11.72785,56.9721 C11.72785,56.9721 11.607949,57.5839 11.336579,58.2828 C11.065171,58.9816 10.680133,59.8317 9.847583,60.3123 C9.181009,60.6955 8.514361,60.7922 7.970248,60.6992 C7.426171,60.6062 7.020617,60.3623 6.749358,60.2058 C6.157091,59.8638 5.797465,59.3978 5.232094,59.0161 C4.666723,58.6343 3.9687274,58.3162 2.8475568,58.3161 C1.6871738,58.3162 1.0914198,58.536 0.6840114,59.0567 C0.2766031,59.5773 -3.55e-05,60.6079 1.60000002e-06,62.36 C1.60000002e-06,64.112 0.2766031,65.1419 0.6840114,65.6625 C1.0914198,66.1832 1.6871367,66.4037 2.8475568,66.4037 C3.9688016,66.4037 4.666723,66.0855 5.232094,65.7038 C5.797428,65.322 6.157017,64.856 6.749358,64.5141 C7.021137,64.3572 7.427024,64.1133 7.970952,64.0206 C8.514881,63.9276 9.180713,64.0206 9.846878,64.4068 C10.679428,64.8875 11.064466,65.7375 11.335874,66.4363 C11.607245,67.1352 11.727108,67.7464 11.727108,67.7464 L11.741578,67.8184 L11.741578,78.6224 L22.373148,78.6224 C22.413248,78.6124 22.849039,78.5264 23.390445,78.3167 C23.956149,78.097 24.526825,77.7202 24.67147,77.4696 C24.912049,77.0531 24.919803,76.8122 24.880887,76.5842 C24.841937,76.3562 24.719994,76.1251 24.564257,75.8553 C24.459752,75.6743 23.931368,75.1685 23.430288,74.4264 C22.929207,73.6844 22.476057,72.6328 22.476057,71.2115 C22.476057,69.8294 22.82537,68.6303 23.786056,67.8786 C24.746741,67.1268 26.109641,66.8801 28.003745,66.8801 C29.897886,66.8801 31.260786,67.1268 32.221471,67.8786 C33.182157,68.6303 33.53147,69.8294 33.53147,71.2115 C33.53147,72.6328 33.07832,73.6844 32.57724,74.4264 C32.076122,75.1685 31.547849,75.6741 31.44327,75.8553 C31.28783,76.1246 31.166261,76.3552 31.127382,76.5835 C31.088472,76.8119 31.096222,77.0535 31.336058,77.4696 C31.480628,77.7201 32.051378,78.097 32.617083,78.3167 C33.158488,78.5269 33.594277,78.6143 33.634379,78.6224 L44.196391,78.6224 L44.196391,67.8184 L44.210861,67.7464 C44.210861,67.7464 44.330724,67.1351 44.602132,66.4363 C44.87354,65.7375 45.258578,64.8875 46.091127,64.4068 C46.604228,64.1118 47.117031,63.9877 47.574299,63.988 C47.730147,63.988 47.879948,63.998 48.021365,64.02 C48.565478,64.113 48.970995,64.3576 49.242254,64.5142 C49.834484,64.8562 50.194147,65.3221 50.759518,65.7039 C51.320883,66.083 52.01413,66.3987 53.121611,66.4031 C54.260886,66.4031 54.851112,66.1785 55.254736,65.6626 C55.662145,65.142 55.938709,64.1121 55.938709,62.3601 C55.938709,60.608 55.662145,59.5774 55.254736,59.0568 C54.851186,58.5411 54.261108,58.3211 53.122316,58.3169 C52.014352,58.3169 51.321031,58.637 50.759518,59.0162 C50.194147,59.3979 49.834521,59.8632 49.242254,60.2052 C48.970513,60.362 48.564551,60.606 48.02066,60.6986 C47.88184,60.7226 47.735006,60.7326 47.582275,60.7306 C47.122966,60.7306 46.60727,60.6105 46.091127,60.3125 C45.258578,59.8319 44.87354,58.9818 44.602132,58.283 C44.330724,57.5842 44.210861,56.9723 44.210861,56.9723 L44.196391,56.9013 L44.196391,46.0973 L33.631486,46.0973 C33.589046,46.1073 33.156967,46.1923 32.617083,46.4024 C32.051341,46.6221 31.480702,46.9996 31.336058,47.2501 C31.095478,47.6666 31.087688,47.9075 31.12664,48.1355 C31.16559,48.3635 31.287534,48.5947 31.44327,48.8645 C31.547812,49.0455 32.076159,49.5512 32.57724,50.2933 C33.015662,50.9426 33.417617,51.8287 33.511177,52.9923 C33.524537,53.1585 33.531577,53.3305 33.531577,53.5082 C33.531577,54.5448 33.335181,55.4781 32.831653,56.1971 C32.663822,56.4367 32.46175,56.6525 32.221579,56.8405 C31.380979,57.4982 30.232245,57.7697 28.689309,57.8273 C28.468874,57.8373 28.240648,57.8393 28.003852,57.8393 C26.109711,57.8393 24.746811,57.5918 23.786163,56.8401 C22.825515,56.0883 22.476165,54.8899 22.476165,53.5078 C22.476053,52.0865 22.929314,51.035 23.430395,50.2929 C23.931475,49.5509 24.459823,49.0451 24.564364,48.8641 C24.642274,48.7291 24.711754,48.604 24.76651,48.4837 C24.82097,48.364 24.86085,48.2491 24.880252,48.1352 C24.919132,47.9069 24.911042,47.6654 24.671577,47.2497 C24.526933,46.9992 23.956257,46.6217 23.390552,46.402 C22.85063,46.1923 22.418589,46.1059 22.376149,46.097 L11.742427,46.097 L11.74232,46.0968 Z" id="Shape"></path>
                </g>
            </g>
        </g>
    </g>
</svg>