<?xml version="1.0" encoding="UTF-8"?>
<svg width="445px" height="129px" viewBox="0 0 445 129" version="1.1" xmlns="http://www.w3.org/2000/svg" xmlns:xlink="http://www.w3.org/1999/xlink">
    <!-- Generator: Sketch 42 (36781) - http://www.bohemiancoding.com/sketch -->
    <title>Artboard</title>
    <desc>Created with Sketch.</desc>
    <defs></defs>
    <g id="Page-1" stroke="none" stroke-width="1" fill="none" fill-rule="evenodd">
        <g id="Artboard" fill-rule="nonzero" fill="#FFFFFF">
            <g id="slack_monochrome_white">
                <g id="Layer_2">
                    <g id="Group" transform="translate(150.000000, 0.000000)">
                        <path d="M51.5,35.5 C55.4,37.2 55.7,38.5 52.6,44.3 C49.5,50.3 48.7,50.6 44.9,49.1 C40.1,47 33.9,45.5 29.9,45.5 C23.4,45.5 19,47.8 19,51.4 C19,63.1 56.4,56.8 56.4,81.8 C56.4,94.4 45.6,102.8 29.4,102.8 C20.9,102.8 10.4,100 3.1,96.3 C-0.5,94.5 -0.7,93.4 2.4,87.4 C5.1,82.1 6,81.6 9.9,83.2 C16.1,85.9 23.9,88 29.2,88 C35.2,88 39.1,85.6 39.1,82 C39.1,70.6 1,76 1,51.8 C1,38.9 11.7,30.3 27.8,30.3 C35.4,30.2 44.9,32.5 51.5,35.5 Z" id="Shape"></path>
                        <path d="M81.7,5.8 L81.7,99 C81.7,100.4 80.2,101.9 78.1,101.9 L68.3,101.9 C66.2,101.9 64.7,100.4 64.7,99 L64.7,5.8 C64.7,1.2 66,0.8 73.2,0.8 C81.4,0.7 81.7,1.3 81.7,5.8 Z" id="Shape"></path>
                        <path d="M151.4,58.2 L151.4,98.3 C151.4,100.4 149.9,101.9 147.8,101.9 L138.1,101.9 C135.9,101.9 134.3,100.3 134.5,98.1 L134.6,93.8 C129.3,99.6 121.8,102.7 114.3,102.7 C99.7,102.7 89.9,94.2 89.9,81.6 C89.9,68.2 101,59.1 117.6,59.1 C123.9,59.1 129.7,60.2 134.4,62.2 L134.4,57.6 C134.4,50.2 128.6,45.8 118.7,45.8 C114.1,45.8 108.4,47.6 103.9,50.3 C100.4,52.3 99.6,52.1 95.8,46.5 C92.1,40.9 92.2,39.8 95.8,37.5 C102.6,33.1 111.9,30.3 120.4,30.3 C139.4,30.2 151.4,40.6 151.4,58.2 Z M106.2,81.4 C106.2,86.2 110.2,89.4 116.4,89.4 C123.8,89.4 130.5,85.8 134.4,79.8 L134.4,73.5 C130.5,72 125.7,71.2 121.5,71.2 C112.3,71.2 106.2,75.5 106.2,81.4 Z" id="Shape"></path>
                        <path d="M217.9,35.6 C221.5,37.7 221.6,38.8 217.7,44.8 C214,50.5 213.4,50.8 209.5,48.8 C206.5,47.2 201.8,45.9 197.8,45.9 C185.5,45.9 177.3,54 177.3,66.2 C177.3,78.9 185.5,87.4 197.8,87.4 C202.1,87.4 207.4,85.8 210.9,83.8 C214.5,81.7 215.2,81.9 219,87.4 C222.4,92.5 222.3,93.7 219.3,95.9 C213.8,99.7 205.2,102.6 197.6,102.6 C174.9,102.6 159.7,88 159.7,66.2 C159.7,44.5 174.9,30.1 197.8,30.1 C204.6,30.2 212.8,32.6 217.9,35.6 Z" id="Shape"></path>
                        <path d="M292.1,93.1 C294.9,96.7 293.8,98 286.7,100.6 C279.5,103.2 278.5,103.1 275.9,99.7 L255.6,72.6 L246.5,81.4 L246.5,99 C246.5,100.4 245,101.9 242.9,101.9 L233,101.9 C230.9,101.9 229.4,100.4 229.4,99 L229.4,5.8 C229.4,1.2 230.7,0.8 237.9,0.8 C246.1,0.8 246.4,1.4 246.4,5.8 L246.4,58.8 L274.2,32.1 C277.3,29.2 279,29.4 284.4,33 C290.4,36.9 290.9,38 288,40.8 L267.3,61 L292.1,93.1 Z" id="Shape"></path>
                    </g>
                    <g id="Group" transform="translate(0.000000, 2.000000)">
                        <rect id="Rectangle-path" transform="translate(62.694820, 62.796940) rotate(-18.518296) translate(-62.694820, -62.796940) " x="53.8950268" y="54.2971398" width="17.5995864" height="16.9996005"></rect>
                        <g>
                            <rect id="Rectangle-path" transform="translate(62.694820, 62.796940) rotate(-18.518296) translate(-62.694820, -62.796940) " x="53.8950268" y="54.2971398" width="17.5995864" height="16.9996005"></rect>
                            <path d="M120,45.5 C107.1,2.5 88.5,-7.5 45.5,5.4 C2.5,18.3 -7.5,36.9 5.4,79.9 C18.3,122.9 36.9,132.9 79.9,120 C122.9,107.1 132.9,88.5 120,45.5 Z M98.3,73.4 L90.2,76.1 L93,84.5 C94.1,87.9 92.3,91.6 88.9,92.7 C88.2,92.9 87.4,93.1 86.7,93 C84.1,92.9 81.6,91.2 80.7,88.6 L77.9,80.2 L61.2,85.8 L64,94.2 C65.1,97.6 63.3,101.3 59.9,102.4 C59.2,102.6 58.4,102.8 57.7,102.7 C55.1,102.6 52.6,100.9 51.7,98.3 L48.9,89.9 L40.8,92.6 C40.1,92.8 39.3,93 38.6,92.9 C36,92.8 33.5,91.1 32.6,88.5 C31.5,85.1 33.3,81.4 36.7,80.3 L44.8,77.6 L39.4,61.5 L31.3,64.2 C30.6,64.4 29.8,64.6 29.1,64.5 C26.5,64.4 24,62.7 23.1,60.1 C22,56.7 23.8,53 27.2,51.9 L35.3,49.2 L32.5,40.8 C31.4,37.4 33.2,33.7 36.6,32.6 C40,31.5 43.7,33.3 44.8,36.7 L47.6,45.1 L64.3,39.5 L61.5,31.1 C60.4,27.7 62.2,24 65.6,22.9 C69,21.8 72.7,23.6 73.8,27 L76.6,35.4 L84.7,32.7 C88.1,31.6 91.8,33.4 92.9,36.8 C94,40.2 92.2,43.9 88.8,45 L80.7,47.7 L86.1,63.8 L94.2,61.1 C97.6,60 101.3,61.8 102.4,65.2 C103.5,68.6 101.7,72.3 98.3,73.4 Z" id="Shape"></path>
                        </g>
                    </g>
                </g>
            </g>
        </g>
    </g>
</svg>