<?xml version="1.0" encoding="UTF-8"?>
<svg width="62px" height="92px" viewBox="0 0 62 92" version="1.1" xmlns="http://www.w3.org/2000/svg" xmlns:xlink="http://www.w3.org/1999/xlink">
    <!-- Generator: Sketch 42 (36781) - http://www.bohemiancoding.com/sketch -->
    <title>Artboard 2</title>
    <desc>Created with Sketch.</desc>
    <defs></defs>
    <g id="Page-1" stroke="none" stroke-width="1" fill="none" fill-rule="evenodd">
        <g id="Artboard-2" fill-rule="nonzero" fill="#0068A8">
            <g id="team" transform="translate(1.000000, 0.000000)">
                <path d="M59.604,18.664 C59.397,17.401 58.186,17.06 58.186,17.06 C57.944,16.991 57.707,16.935 57.466,16.872 C57.461,16.87 57.459,16.865 57.454,16.863 L57.264,16.819 C56.604,16.651 55.957,16.499 55.385,16.381 C55.385,16.381 55.385,16.382 55.384,16.383 L54.264,16.123 C52.373,15.697 51.815,14.889 51.681,14.283 C52.546,13.542 53.273,12.176 53.538,9.752 C53.704,8.237 53.726,7.007 53.364,6.11 C53.308,5.928 53.246,5.739 53.175,5.512 C53.328,5.11 53.441,4.605 53.441,3.942 C53.441,3.942 52.501,3.453 49.878,3.453 C47.505,3.453 46.452,4.709 46.087,5.297 C46.055,5.329 46.018,5.358 45.988,5.391 C45.186,6.286 45.166,7.781 45.381,9.751 C45.647,12.175 46.374,13.541 47.239,14.282 C47.104,14.888 46.547,15.696 44.654,16.122 L43.072,16.49 C42.908,16.526 42.731,16.569 42.56,16.609 C42.598,16.732 42.642,16.85 42.665,16.988 C42.905,16.932 43.14,16.875 43.393,16.822 C43.988,17.848 45.587,19.655 49.46,19.655 C53.325,19.655 54.964,17.855 55.582,16.832 L57.293,17.23 C57.559,17.299 57.83,17.367 58.077,17.438 C58.117,17.45 59.054,17.737 59.216,18.728 C60.171,24.558 60.009,30.601 59.853,36.445 C59.8,38.438 59.745,40.492 59.735,42.509 C59.371,42.38 58.888,42.244 58.469,42.244 C58.036,42.244 57.493,42.394 57.113,42.521 C57.08,42.026 57.045,41.531 57.009,41.036 C56.862,38.967 56.709,36.827 56.709,34.722 C56.709,34.14 56.715,33.509 56.72,32.877 C56.731,31.631 56.742,30.344 56.709,29.475 C56.62,27.099 56.51,23.806 56.51,23.806 L56.117,23.819 C56.117,23.819 56.201,26.332 56.282,28.553 C56.28,28.558 56.274,28.558 56.272,28.563 L55.643,30.244 C55.255,31.801 55.724,33.269 56.288,34.622 C56.294,34.637 56.308,34.644 56.317,34.656 L56.317,34.721 C56.317,36.84 56.47,38.987 56.618,41.063 C56.633,41.274 56.647,41.485 56.662,41.696 C56.655,41.696 56.648,41.69 56.641,41.69 C56.597,41.69 56.554,41.697 56.511,41.712 C56.483,41.722 53.695,42.677 49.484,42.677 C46.608,42.677 44.398,42.232 43.275,41.946 L43.217,44.654 L42.772,44.448 L42.789,44.829 C42.815,45.524 42.841,46.181 42.964,46.807 C42.991,46.949 43.031,47.148 42.997,47.378 C42.966,47.594 42.879,47.762 42.822,47.874 C42.554,48.4 42.276,48.906 41.971,49.417 C41.903,49.53 41.817,49.613 41.735,49.703 C41.799,50.071 41.867,50.406 41.936,50.673 C42.368,52.336 43.118,59.629 43.305,62.139 C43.359,62.848 43.392,63.702 43.428,64.607 C43.516,66.869 43.626,69.683 44.121,71.978 C44.784,75.049 44.503,76.123 44.5,76.131 C44.478,76.206 44.503,76.288 44.563,76.338 C44.579,76.351 44.686,76.437 44.878,76.537 C45.124,77.649 45.367,78.862 45.377,80.033 C45.379,80.279 45.368,80.506 45.35,80.729 C45.271,80.855 45.225,81.014 45.198,81.145 C45.169,81.297 45.105,81.652 45.028,82.086 C44.891,82.851 44.704,83.898 44.588,84.499 C44.574,84.568 44.561,84.638 44.546,84.708 C44.447,85.194 44.346,85.697 44.455,86.194 C44.525,86.511 44.675,86.741 44.926,86.918 C45.289,87.172 45.671,87.355 46.064,87.533 C46.16,87.577 46.269,87.62 46.389,87.62 C46.44,87.62 46.492,87.612 46.546,87.595 C46.815,87.504 47.109,87.39 47.474,87.233 C47.821,87.085 48.074,86.925 48.271,86.734 C48.766,86.252 48.736,85.462 48.712,84.827 L48.71,84.777 C48.697,84.429 48.683,84.082 48.669,83.733 C48.633,82.839 48.595,81.916 48.578,81.007 C48.575,80.835 48.542,80.247 48.24,79.901 C48.227,79.886 48.213,79.883 48.199,79.872 C48.195,79.838 48.183,79.802 48.18,79.768 C48.081,78.741 47.996,77.684 47.946,76.62 C48.191,76.536 48.445,76.434 48.713,76.3 C48.778,76.268 48.819,76.201 48.821,76.129 C48.945,70.934 48.76,63.877 48.759,63.816 C48.761,63.727 48.947,54.867 49.071,53.328 C49.144,52.421 49.346,50.798 49.501,49.61 C49.655,50.798 49.857,52.421 49.93,53.328 C50.054,54.867 50.241,63.727 50.242,63.807 C50.24,63.877 50.055,70.934 50.18,76.129 C50.182,76.201 50.223,76.268 50.288,76.3 C50.527,76.419 50.755,76.515 50.975,76.594 C50.925,77.668 50.839,78.733 50.738,79.768 C50.735,79.802 50.724,79.838 50.719,79.872 C50.705,79.883 50.691,79.886 50.678,79.901 C50.377,80.248 50.344,80.836 50.341,81.007 C50.324,81.89 50.288,82.787 50.253,83.655 C50.237,84.029 50.223,84.403 50.209,84.776 L50.207,84.826 C50.184,85.461 50.153,86.251 50.648,86.733 C50.843,86.923 51.096,87.083 51.444,87.232 C51.816,87.392 52.102,87.503 52.373,87.594 C52.428,87.612 52.479,87.619 52.53,87.619 C52.65,87.619 52.759,87.576 52.856,87.532 C53.25,87.351 53.632,87.169 53.993,86.917 C54.241,86.742 54.394,86.506 54.463,86.193 C54.573,85.694 54.471,85.19 54.371,84.702 C54.357,84.634 54.344,84.565 54.33,84.498 C54.219,83.919 54.045,82.951 53.906,82.174 C53.821,81.699 53.751,81.307 53.719,81.144 C53.693,81.012 53.647,80.852 53.567,80.726 C53.55,80.505 53.538,80.279 53.54,80.032 C53.551,78.879 53.788,77.682 54.03,76.58 C54.276,76.462 54.419,76.352 54.437,76.337 C54.497,76.287 54.522,76.206 54.5,76.132 C54.497,76.121 54.216,75.048 54.879,71.977 C55.374,69.682 55.484,66.868 55.572,64.606 C55.608,63.702 55.641,62.847 55.695,62.138 C55.883,59.628 56.633,52.335 57.064,50.672 C57.162,50.292 57.245,49.78 57.316,49.218 C57.65,49.152 57.951,49.079 57.957,49.077 C58.353,48.958 58.896,48.795 59.183,48.316 C59.459,47.851 59.712,47.393 59.955,46.914 C59.999,46.827 60.049,46.729 60.066,46.611 C60.084,46.487 60.061,46.372 60.039,46.257 C59.917,45.636 59.892,44.977 59.867,44.34 C59.86,44.143 59.852,43.947 59.843,43.753 C59.828,43.469 59.823,43.214 59.819,42.959 C60.003,43.032 60.125,43.089 60.125,43.089 C60.128,35.03 60.926,26.729 59.604,18.664 Z M45.773,9.709 C45.721,9.232 45.69,8.815 45.674,8.432 C45.93,7.824 46.379,6.984 46.982,6.729 C48.196,7.407 48.864,7.595 50.156,7.595 C51.732,7.595 52.424,7.03 52.424,7.03 C52.424,7.03 52.943,7.629 53.253,8.311 C53.239,8.724 53.205,9.184 53.148,9.71 C52.793,12.965 51.517,14.686 49.46,14.686 C47.403,14.686 46.129,12.964 45.773,9.709 Z M49.461,19.262 C45.906,19.262 44.393,17.695 43.795,16.726 L44.743,16.506 C46.676,16.071 47.356,15.23 47.574,14.538 C48.191,14.944 48.855,15.079 49.46,15.079 C50.065,15.079 50.729,14.944 51.346,14.538 C51.565,15.23 52.244,16.072 54.175,16.506 L55.177,16.739 C54.553,17.708 53.001,19.262 49.461,19.262 Z M56.328,32.874 C56.326,33.121 56.324,33.367 56.322,33.611 C55.958,32.569 55.742,31.474 56.018,30.36 L56.318,29.558 C56.348,30.418 56.339,31.663 56.328,32.874 Z M47.958,80.624 C48.018,80.891 48.073,81.143 48.098,81.394 C48.132,81.742 48.095,82.046 48.06,82.342 C48.032,82.574 48.005,82.793 48.012,83.024 C48.019,83.229 48.07,83.445 48.118,83.654 C48.222,84.096 48.32,84.513 48.056,84.863 C47.993,84.946 47.593,85.089 46.902,85.143 C46.114,85.205 45.629,85.107 45.535,85.018 C45.401,84.888 45.306,84.701 45.221,84.39 C45.094,83.935 45.245,83.337 45.379,82.81 C45.432,82.602 45.483,82.403 45.516,82.22 C45.659,81.439 45.759,80.824 45.751,80.031 C45.741,78.915 45.528,77.775 45.299,76.715 C45.812,76.889 46.583,77 47.58,76.734 C47.632,77.773 47.713,78.804 47.81,79.805 C47.837,80.08 47.899,80.356 47.958,80.624 Z M53.17,80.03 C53.163,80.82 53.264,81.436 53.405,82.219 C53.438,82.402 53.489,82.6 53.542,82.806 C53.676,83.334 53.828,83.933 53.701,84.389 C53.615,84.7 53.52,84.887 53.387,85.016 C53.279,85.12 52.719,85.199 52.016,85.141 C51.327,85.086 50.928,84.945 50.866,84.862 C50.602,84.512 50.7,84.095 50.804,83.655 C50.853,83.445 50.904,83.228 50.91,83.023 C50.917,82.792 50.89,82.571 50.863,82.337 C50.827,82.043 50.791,81.738 50.824,81.393 C50.848,81.144 50.904,80.894 50.963,80.629 C51.024,80.359 51.085,80.081 51.111,79.804 C51.209,78.795 51.292,77.755 51.343,76.707 C51.799,76.837 52.214,76.897 52.575,76.897 C52.989,76.897 53.336,76.83 53.617,76.743 C53.389,77.797 53.181,78.927 53.17,80.03 Z M59.625,46.749 C59.387,47.219 59.138,47.67 58.865,48.127 C58.67,48.455 58.291,48.591 57.852,48.722 C57.781,48.743 57.184,48.861 56.82,48.926 C56.838,48.903 56.859,48.879 56.882,48.858 C56.98,48.765 57.108,48.698 57.255,48.62 L58.054,48.201 C58.094,48.18 58.124,48.145 58.141,48.103 C58.297,47.698 58.46,47.1 58.353,46.549 C58.309,46.324 58.247,46.101 58.166,45.883 C58.136,45.804 57.915,45.277 57.915,45.277 C57.889,45.215 57.831,45.172 57.763,45.164 C57.706,45.152 57.63,45.186 57.591,45.242 L57.412,45.498 C57.201,45.856 57.189,46.261 57.179,46.653 C57.176,46.743 57.174,46.833 57.169,46.922 C57.155,47.146 57.09,47.662 56.749,47.872 C56.742,46.756 56.743,45.605 57.071,44.535 C57.167,44.227 57.291,43.919 57.412,43.621 C57.521,43.349 57.632,43.077 57.724,42.798 C57.73,42.781 57.733,42.765 57.738,42.748 C57.987,42.685 58.248,42.637 58.47,42.637 C58.781,42.637 59.141,42.728 59.447,42.827 C59.45,43.129 59.455,43.434 59.472,43.774 C59.483,43.967 59.49,44.161 59.497,44.356 C59.522,45.007 59.548,45.681 59.678,46.342 C59.694,46.423 59.708,46.498 59.699,46.56 C59.692,46.617 59.66,46.68 59.625,46.749 Z M57.438,48.103 C57.47,47.752 57.498,47.404 57.523,47.064 C57.527,47.022 57.539,46.987 57.541,46.944 C57.547,46.852 57.55,46.758 57.552,46.664 C57.556,46.516 57.564,46.374 57.578,46.236 C57.579,46.214 57.581,46.19 57.582,46.168 C57.603,46.012 57.638,45.866 57.705,45.738 C57.756,45.861 57.805,45.98 57.817,46.013 C57.89,46.211 57.948,46.416 57.988,46.62 C58.055,46.966 57.995,47.42 57.818,47.903 L57.438,48.103 Z M18.341,81.817 L18.969,81.817 L19.993,64.267 L20.423,49.881 C20.276,49.754 20.14,49.605 20.028,49.417 C19.724,48.908 19.445,48.402 19.176,47.873 C19.12,47.763 19.033,47.595 19.002,47.375 C18.968,47.149 19.007,46.951 19.033,46.82 C19.158,46.182 19.183,45.525 19.21,44.83 L19.227,44.449 L18.783,44.655 L18.681,39.931 C17.385,40.078 15.076,40.291 12.539,40.291 C9.209,40.291 6.258,39.923 5.498,39.821 C5.757,36.924 5.951,34.081 5.612,31.195 C5.576,30.885 5.537,30.576 5.498,30.266 C5.411,29.583 5.322,28.876 5.267,28.213 L5.596,23.97 C5.601,23.91 5.576,23.857 5.537,23.817 L5.19,23.334 C5.127,23.246 5.002,23.226 4.917,23.289 C4.828,23.352 4.809,23.475 4.872,23.563 L5.187,24 L4.863,28.211 L4.863,28.211 L4.348,31.176 L3.653,41.647 C1.998,41.553 1.104,42.043 0.705,42.371 L0.654,31.93 C1.063,28.102 1.873,20.715 2.006,20.156 C2.348,18.711 2.923,17.891 3.764,17.649 C4.618,17.403 5.852,17.107 6.941,16.845 C7.641,16.677 8.29,16.52 8.777,16.393 L9.317,17.415 L10.483,19.085 C10.518,19.135 10.574,19.167 10.634,19.171 L10.649,19.171 C10.705,19.171 10.758,19.148 10.796,19.107 L11.549,18.307 C11.585,18.378 11.616,18.449 11.635,18.518 C11.754,18.956 11.801,19.366 11.802,19.37 C11.81,19.439 11.853,19.499 11.915,19.53 C11.935,19.539 11.955,19.541 11.976,19.544 L10.918,36.213 C10.915,36.26 10.929,36.306 10.956,36.344 L12.375,38.311 C12.413,38.364 12.474,38.395 12.539,38.395 C12.604,38.395 12.665,38.364 12.703,38.311 L14.122,36.344 C14.149,36.306 14.163,36.26 14.16,36.213 L13.1,19.527 C13.122,19.524 13.142,19.54 13.163,19.53 C13.225,19.5 13.268,19.44 13.276,19.371 C13.277,19.367 13.324,18.957 13.443,18.519 C13.461,18.452 13.505,18.386 13.539,18.319 L14.282,19.109 C14.32,19.15 14.374,19.173 14.429,19.173 L14.444,19.173 C14.505,19.169 14.56,19.137 14.595,19.087 L15.775,17.395 L16.302,16.395 C16.791,16.523 17.443,16.68 18.143,16.848 C18.525,16.94 18.923,17.036 19.318,17.133 L19.323,17.062 C19.342,16.948 19.379,16.855 19.407,16.751 C19.012,16.654 18.615,16.558 18.234,16.467 C17.645,16.325 16.642,16.078 16.642,16.078 L16.176,15.864 L15.359,15.042 C15.317,14.999 15.255,14.979 15.199,14.983 C15.177,14.985 15.164,15.005 15.145,15.014 C15.023,14.798 14.939,14.58 14.896,14.386 C15.815,13.6 16.588,12.15 16.869,9.575 C16.93,9.017 16.971,8.498 16.985,8.014 C17.001,7.726 17.007,7.474 17.003,7.252 C17.188,5.891 16.927,3.411 12.534,3.411 C7.187,3.411 7.87,7.088 8.101,7.943 C8.113,8.447 8.154,8.988 8.218,9.574 C8.498,12.142 9.267,13.59 10.183,14.378 L10.183,14.379 C10.141,14.573 10.055,14.793 9.932,15.013 C9.912,15.005 9.9,14.984 9.878,14.982 C9.817,14.979 9.76,14.999 9.718,15.041 L8.9,15.861 L8.434,16.075 C7.983,16.189 7.434,16.322 6.847,16.463 C5.754,16.726 4.516,17.024 3.653,17.271 C2.665,17.556 2,18.469 1.622,20.065 C1.45,20.788 0.311,31.436 0.262,31.91 L0.318,42.894 L0.743,45.196 C0.756,45.262 0.801,45.317 0.863,45.342 C0.886,45.351 0.912,45.356 0.936,45.356 C0.976,45.356 1.016,45.344 1.05,45.319 C1.053,45.317 1.132,45.263 1.263,45.189 C1.218,45.723 1.161,46.452 1.161,46.769 C1.161,46.925 1.144,47.049 1.13,47.165 C1.097,47.431 1.065,47.682 1.21,48.116 C1.277,48.317 1.339,48.513 1.398,48.7 C1.509,49.053 1.615,49.385 1.719,49.645 L1.746,49.712 C1.89,50.078 2.015,50.394 2.629,50.722 C2.924,50.879 3.003,50.918 3.042,50.938 C3.079,50.957 3.079,50.957 3.207,51.03 C3.502,51.199 3.729,51.291 4.086,51.291 C4.316,51.291 4.532,51.135 4.622,50.902 C4.728,50.625 4.638,50.318 4.378,50.083 C4.129,49.856 3.943,49.73 3.794,49.63 C3.687,49.558 3.602,49.5 3.529,49.427 C3.365,49.263 3.198,48.926 3.198,48.598 C3.198,48.314 3.215,48.134 3.226,48 L3.231,47.894 C3.252,47.862 3.386,47.818 3.558,47.828 C3.563,47.884 3.578,47.932 3.573,47.997 C3.526,48.509 3.69,48.837 4.076,49.379 C4.24,49.608 4.448,49.725 4.65,49.762 L5.083,64.265 L6.107,81.815 L6.735,81.815 C6.64,82.257 6.554,82.689 6.395,82.906 C6.112,83.294 3.894,86.088 3.886,86.516 C3.878,86.944 3.969,87.02 4.186,87.068 C5.759,87.416 7.937,87.001 9.037,86.079 L9.045,85.675 C8.897,85.434 9.073,85.303 9.073,85.303 L9.636,85.353 L10.934,84.619 C10.934,84.619 11.037,83.363 10.657,81.816 L10.66,81.816 L12.537,51.152 L14.414,81.816 L14.417,81.816 C14.037,83.363 14.14,84.619 14.14,84.619 L15.438,85.353 L16.001,85.303 C16.001,85.303 16.178,85.434 16.029,85.675 L16.037,86.079 C17.137,87.001 19.315,87.416 20.888,87.068 C21.106,87.02 21.196,86.944 21.188,86.516 C21.18,86.088 18.961,83.294 18.679,82.906 C18.523,82.691 18.436,82.259 18.341,81.817 Z M12.808,17.192 L12.271,17.192 C12.221,17.156 11.48,16.615 10.886,16.022 C10.567,15.703 10.352,15.461 10.214,15.298 C10.346,15.102 10.449,14.881 10.524,14.636 C11.184,15.077 11.896,15.224 12.545,15.224 C13.191,15.224 13.9,15.078 14.558,14.641 C14.633,14.884 14.735,15.103 14.866,15.297 C14.728,15.46 14.513,15.702 14.193,16.022 C13.599,16.615 12.858,17.156 12.808,17.192 Z M12.544,13.336 C12.306,13.336 12.112,13.529 12.112,13.768 L12.112,14.23 L11.529,14.23 C11.111,14.23 10.773,13.892 10.773,13.474 C10.773,13.056 11.111,12.718 11.529,12.718 L13.456,12.718 C13.874,12.718 14.212,13.056 14.212,13.474 C14.212,13.892 13.874,14.23 13.456,14.23 L12.976,14.23 L12.976,13.768 C12.976,13.529 12.782,13.336 12.544,13.336 Z M15.234,15.487 L15.946,16.203 L15.43,17.184 L14.406,18.65 L13.22,17.39 C13.493,17.182 14.023,16.765 14.479,16.308 C14.854,15.934 15.096,15.656 15.234,15.487 Z M9.979,12.216 C9.951,12.227 9.455,12.393 8.963,11.341 C8.817,10.793 8.695,10.201 8.622,9.528 C8.553,8.896 8.515,8.352 8.506,7.872 C8.754,7.32 9.147,6.619 9.693,6.182 L9.617,5.788 L9.617,5.788 L9.587,5.632 C9.626,5.712 9.676,5.785 9.731,5.85 C9.773,5.901 9.818,5.944 9.863,5.987 C9.873,5.997 9.884,6.01 9.894,6.019 C9.895,6.02 9.896,6.02 9.897,6.021 C9.903,6.027 9.91,6.035 9.916,6.041 C9.917,6.04 9.919,6.039 9.92,6.038 C10.88,6.793 13.022,8.057 16.578,8.111 C16.562,8.533 16.528,8.997 16.47,9.528 C16.396,10.201 16.275,10.794 16.128,11.342 C15.636,12.394 15.14,12.227 15.112,12.216 C14.268,11.817 12.547,11.784 12.547,11.784 C12.547,11.784 12.524,11.785 12.491,11.786 C12.479,11.786 12.476,11.786 12.46,11.787 C12.365,11.79 12.197,11.798 11.983,11.814 C11.969,11.815 11.956,11.816 11.941,11.817 C11.72,11.834 11.461,11.861 11.192,11.9 C11.176,11.902 11.161,11.905 11.146,11.907 C10.878,11.948 10.608,12.003 10.365,12.075 C10.349,12.08 10.333,12.085 10.317,12.089 C10.193,12.128 10.079,12.169 9.979,12.216 Z M9.844,15.487 C9.983,15.656 10.225,15.934 10.599,16.308 C11.055,16.764 11.584,17.182 11.858,17.39 L10.671,18.65 L9.66,17.206 L9.132,16.203 L9.844,15.487 Z M1.076,44.844 L0.712,42.889 C0.723,42.879 0.74,42.883 0.749,42.87 C0.756,42.86 1.493,41.907 3.648,42.04 L3.78,44.296 C2.531,44.138 1.528,44.591 1.076,44.844 Z M4.81,49.373 C4.734,49.372 4.565,49.365 4.408,49.144 C4.034,48.619 3.945,48.391 3.978,48.035 C4.01,47.676 3.904,47.431 3.8,47.193 C3.764,47.11 3.727,47.025 3.696,46.932 C3.66,46.826 3.547,46.767 3.439,46.805 C3.334,46.84 3.276,46.955 3.311,47.061 C3.346,47.166 3.388,47.262 3.429,47.356 C3.439,47.38 3.445,47.401 3.455,47.424 C3.285,47.432 3.124,47.468 3.008,47.555 C2.904,47.633 2.842,47.737 2.834,47.848 L2.824,47.966 C2.811,48.109 2.795,48.299 2.795,48.6 C2.795,49.061 3.021,49.493 3.243,49.715 C3.344,49.816 3.447,49.886 3.568,49.968 C3.707,50.062 3.879,50.177 4.106,50.385 C4.239,50.505 4.29,50.642 4.245,50.759 C4.216,50.834 4.149,50.889 4.087,50.889 C3.816,50.889 3.659,50.825 3.409,50.681 C3.264,50.599 3.264,50.599 3.223,50.578 C3.185,50.558 3.108,50.52 2.82,50.367 C2.338,50.109 2.257,49.905 2.124,49.566 L2.096,49.497 C1.997,49.249 1.894,48.925 1.784,48.58 C1.724,48.392 1.662,48.193 1.595,47.99 C1.478,47.642 1.5,47.465 1.532,47.219 C1.549,47.087 1.566,46.947 1.566,46.771 C1.566,46.427 1.641,45.521 1.686,44.991 C2.178,44.784 2.915,44.588 3.765,44.7 C3.995,45.267 4.313,46.04 4.411,46.239 C4.54,46.497 4.544,46.998 4.51,47.205 C4.459,47.512 4.849,49.103 4.952,49.316 C4.945,49.329 4.897,49.367 4.81,49.373 Z M5.252,37.846 L5.244,37.844 L4.578,45.612 C4.449,45.307 4.29,44.918 4.156,44.589 C4.166,44.563 4.189,44.542 4.187,44.514 L4.031,41.86 L4.737,31.222 L5.017,29.609 C5.045,29.843 5.066,30.083 5.095,30.313 C5.134,30.621 5.173,30.93 5.209,31.238 C5.469,33.446 5.411,35.635 5.252,37.846 Z M13.74,43.019 C13.74,43.074 13.696,43.119 13.64,43.119 L11.383,43.119 C11.327,43.119 11.283,43.074 11.283,43.019 C11.283,42.964 11.327,42.919 11.383,42.919 L13.54,42.919 L13.54,42.127 L12.861,42.127 C12.805,42.127 12.761,42.082 12.761,42.027 C12.761,41.972 12.805,41.927 12.861,41.927 L13.54,41.927 L13.54,41.135 L11.383,41.135 C11.327,41.135 11.283,41.09 11.283,41.035 C11.283,40.98 11.327,40.935 11.383,40.935 L13.64,40.935 C13.696,40.935 13.74,40.98 13.74,41.035 L13.74,43.019 Z M42.811,28.641 L41.927,17.117 C41.703,15.754 40.396,15.385 40.396,15.385 C37.756,14.629 34.185,13.563 34.185,13.563 L34.185,13.574 C33.182,13.101 33.18,11.93 33.181,11.873 C33.181,11.871 33.179,11.87 33.179,11.869 C33.256,11.787 33.336,11.718 33.41,11.629 C34.614,11.367 35.488,10.724 36.004,9.627 C37.261,6.96 36.578,3.375 34.017,1.642 C32.59,0.676 30.533,0.579 28.984,1.331 C28.873,1.385 28.656,1.575 28.537,1.563 C25.582,1.23 25.291,5.661 25.537,7.562 C25.724,9.009 26.108,10.478 27.412,11.377 C27.658,11.547 27.97,11.613 28.272,11.648 C28.36,11.658 28.504,11.645 28.613,11.657 C28.679,11.736 28.752,11.796 28.82,11.87 C28.82,11.871 28.819,11.872 28.819,11.874 C28.82,11.931 28.818,13.102 27.815,13.575 L27.815,13.564 C27.815,13.564 24.243,14.63 21.604,15.386 C21.604,15.386 20.297,15.755 20.073,17.118 L19.189,28.642 L19.508,43.493 C19.508,43.493 19.638,43.432 19.833,43.355 C19.827,43.628 19.817,43.911 19.802,44.211 C19.791,44.423 19.783,44.637 19.775,44.852 C19.749,45.539 19.721,46.248 19.587,46.929 C19.566,47.039 19.541,47.163 19.561,47.295 C19.58,47.422 19.635,47.531 19.68,47.618 C19.944,48.139 20.216,48.633 20.513,49.131 C20.818,49.642 21.402,49.817 21.827,49.945 C21.836,49.947 22.5,50.107 22.983,50.178 C23.292,54.837 23.925,61.15 23.934,61.234 C23.943,61.326 24.015,61.399 24.107,61.41 C24.114,61.411 24.228,61.424 24.411,61.444 C24.383,62.004 24.352,62.566 24.319,63.12 C24.184,65.389 24.046,67.735 24.224,69.939 C24.386,71.937 24.714,74.117 25.258,76.799 C25.408,77.542 25.61,78.31 25.804,79.052 C26.18,80.489 26.569,81.975 26.634,83.413 C26.646,83.67 26.642,83.909 26.633,84.144 C26.528,84.31 26.488,84.53 26.473,84.622 C26.446,84.802 26.383,85.243 26.307,85.774 C26.189,86.607 26.041,87.644 25.944,88.264 C25.933,88.337 25.921,88.41 25.908,88.486 C25.82,89.016 25.729,89.564 25.867,90.098 C25.954,90.435 26.124,90.676 26.4,90.858 C26.8,91.117 27.22,91.299 27.651,91.477 C27.769,91.527 27.877,91.56 27.985,91.56 C28.047,91.56 28.108,91.549 28.173,91.525 C28.464,91.416 28.777,91.28 29.159,91.099 C29.528,90.924 29.795,90.744 29.998,90.531 C30.513,89.991 30.45,89.14 30.4,88.457 L30.396,88.405 C30.369,88.04 30.341,87.675 30.313,87.309 C30.239,86.336 30.162,85.33 30.108,84.341 C30.097,84.156 30.038,83.524 29.702,83.163 C29.682,83.141 29.66,83.136 29.639,83.121 C29.634,83.088 29.625,83.054 29.62,83.021 C29.275,80.42 28.958,77.654 29.202,74.942 C29.253,74.373 29.33,73.795 29.404,73.236 C29.471,72.726 29.539,72.216 29.59,71.705 C29.731,70.257 29.732,68.79 29.591,67.348 C29.575,67.185 29.558,67.022 29.54,66.859 C29.475,66.253 29.406,65.626 29.439,65.014 C29.481,64.199 29.703,63.375 29.918,62.577 C29.979,62.349 30.039,62.118 30.096,61.887 C30.411,61.897 30.717,61.904 31,61.904 C31.283,61.904 31.588,61.897 31.904,61.887 C31.962,62.118 32.021,62.349 32.082,62.577 C32.297,63.375 32.519,64.198 32.561,65.014 C32.594,65.625 32.526,66.252 32.46,66.859 C32.442,67.022 32.425,67.185 32.409,67.348 C32.268,68.79 32.269,70.257 32.41,71.706 C32.461,72.224 32.529,72.739 32.598,73.255 C32.671,73.808 32.747,74.379 32.798,74.943 C33.042,77.655 32.725,80.422 32.38,83.022 C32.376,83.055 32.367,83.089 32.361,83.122 C32.34,83.136 32.318,83.142 32.298,83.164 C31.96,83.526 31.902,84.157 31.892,84.342 C31.839,85.308 31.764,86.29 31.692,87.24 C31.662,87.629 31.632,88.016 31.604,88.405 L31.6,88.457 C31.55,89.141 31.488,89.991 32.002,90.531 C32.206,90.745 32.473,90.926 32.841,91.099 C33.223,91.28 33.536,91.415 33.827,91.525 C33.892,91.549 33.955,91.559 34.015,91.559 C34.137,91.559 34.248,91.519 34.349,91.478 C34.78,91.299 35.2,91.117 35.599,90.857 C35.876,90.677 36.046,90.436 36.133,90.098 C36.27,89.567 36.18,89.022 36.093,88.494 C36.08,88.417 36.068,88.341 36.056,88.265 C35.953,87.616 35.792,86.485 35.675,85.66 C35.608,85.181 35.552,84.79 35.526,84.622 C35.511,84.531 35.472,84.311 35.367,84.145 C35.358,83.91 35.354,83.671 35.366,83.414 C35.43,81.975 35.819,80.489 36.196,79.053 C36.39,78.311 36.592,77.543 36.742,76.8 C37.286,74.116 37.614,71.937 37.775,69.94 C37.954,67.735 37.815,65.387 37.681,63.118 C37.649,62.565 37.618,62.004 37.589,61.445 C37.772,61.425 37.887,61.412 37.893,61.411 C37.985,61.4 38.057,61.327 38.066,61.235 C38.075,61.151 38.708,54.838 39.017,50.179 C39.5,50.108 40.163,49.949 40.173,49.946 C40.599,49.817 41.183,49.642 41.487,49.132 C41.784,48.634 42.056,48.14 42.32,47.62 C42.365,47.532 42.421,47.423 42.439,47.297 C42.459,47.164 42.434,47.04 42.41,46.919 C42.279,46.25 42.252,45.54 42.225,44.854 C42.216,44.64 42.208,44.426 42.198,44.213 C42.182,43.913 42.173,43.63 42.167,43.357 C42.362,43.434 42.492,43.495 42.492,43.495 L42.811,28.641 Z M27.876,17.336 C28.729,17.973 29.817,18.353 31.001,18.353 C32.184,18.353 33.272,17.973 34.125,17.336 C34.109,18.516 34.095,19.71 34.095,20.487 C34.095,22.519 31,27.5 31,27.5 C31,27.5 27.905,22.519 27.905,20.487 C27.905,19.71 27.892,18.515 27.876,17.336 Z M27.517,7.738 C27.517,7.42 27.521,7.116 27.53,6.822 C28.193,6.077 29.088,4.945 29.429,3.908 C29.429,3.908 29.893,5.248 31.13,5.686 C32.224,6.073 33.804,6.449 34.477,7.029 C34.482,7.259 34.484,7.494 34.484,7.738 C34.484,10.572 32.163,12.731 31.001,12.731 C29.839,12.731 27.517,10.573 27.517,7.738 Z M29.17,12.229 C29.793,12.789 30.454,13.124 31,13.124 C31.546,13.124 32.208,12.791 32.831,12.231 C32.919,12.729 33.206,13.606 34.178,13.98 C34.168,14.549 34.149,15.638 34.132,16.821 C33.31,17.529 32.193,17.96 31,17.96 C29.807,17.96 28.69,17.528 27.868,16.821 C27.851,15.638 27.832,14.549 27.822,13.98 C28.796,13.606 29.083,12.726 29.17,12.229 Z M39.484,43.244 C39.403,43.471 39.318,43.696 39.228,43.92 C39.196,44 39.169,44.086 39.136,44.167 C39.125,43.894 39.113,43.63 39.1,43.377 C39.202,43.339 39.332,43.293 39.484,43.244 Z M38.616,28.798 L38.616,35.172 L37.623,32.788 L38.616,28.798 Z M24.378,32.789 L23.385,35.173 L23.385,28.799 L24.378,32.789 Z M22.901,43.377 C22.887,43.63 22.876,43.894 22.865,44.166 C22.832,44.084 22.805,43.997 22.772,43.916 C22.682,43.694 22.598,43.47 22.517,43.244 C22.669,43.293 22.799,43.339 22.901,43.377 Z M23.143,48.685 C22.752,48.476 22.676,47.884 22.662,47.631 C22.657,47.535 22.654,47.439 22.651,47.341 C22.639,46.919 22.628,46.483 22.393,46.087 L22.209,45.824 C22.171,45.768 22.099,45.733 22.037,45.745 C21.97,45.752 21.911,45.795 21.885,45.858 C21.885,45.858 21.645,46.428 21.614,46.514 C21.527,46.748 21.46,46.989 21.414,47.229 C21.299,47.821 21.474,48.463 21.642,48.899 C21.659,48.941 21.69,48.976 21.73,48.997 L22.592,49.45 C22.729,49.521 22.883,49.601 22.997,49.709 C23.032,49.742 23.063,49.778 23.088,49.814 C22.698,49.746 22.017,49.612 21.936,49.587 C21.459,49.444 21.047,49.296 20.834,48.939 C20.541,48.449 20.272,47.961 20.013,47.449 C19.977,47.38 19.94,47.307 19.931,47.241 C19.92,47.173 19.937,47.09 19.956,46.989 C20.093,46.292 20.121,45.567 20.147,44.866 C20.156,44.654 20.164,44.441 20.175,44.231 C20.194,43.873 20.203,43.541 20.207,43.22 C20.545,43.108 20.949,43.003 21.297,43.003 C21.534,43.003 21.811,43.054 22.076,43.12 C22.082,43.138 22.084,43.154 22.09,43.172 C22.189,43.471 22.307,43.763 22.425,44.055 C22.556,44.378 22.691,44.712 22.794,45.047 C23.152,46.21 23.152,47.451 23.143,48.685 Z M22.922,49.206 C22.869,49.176 22.814,49.145 22.764,49.119 L21.964,48.699 C21.771,48.173 21.705,47.678 21.778,47.3 C21.821,47.079 21.882,46.859 21.963,46.643 C21.978,46.604 22.037,46.459 22.097,46.318 C22.258,46.613 22.268,46.972 22.279,47.352 C22.282,47.453 22.285,47.553 22.291,47.653 C22.326,48.273 22.553,48.728 22.908,48.959 C22.912,49.04 22.917,49.123 22.922,49.206 Z M29.558,62.481 C29.339,63.297 29.112,64.14 29.067,64.995 C29.034,65.636 29.103,66.278 29.17,66.899 C29.188,67.06 29.205,67.222 29.221,67.383 C29.359,68.803 29.359,70.244 29.22,71.669 C29.17,72.177 29.103,72.682 29.036,73.187 C28.961,73.75 28.884,74.333 28.832,74.91 C28.585,77.66 28.904,80.45 29.252,83.071 C29.291,83.365 29.368,83.661 29.442,83.946 C29.516,84.232 29.587,84.503 29.623,84.773 C29.673,85.148 29.645,85.479 29.618,85.8 C29.597,86.051 29.577,86.289 29.595,86.536 C29.61,86.756 29.672,86.987 29.734,87.211 C29.863,87.686 29.986,88.135 29.711,88.528 C29.645,88.622 29.217,88.794 28.472,88.881 C27.697,88.97 27.102,88.908 26.974,88.795 C26.785,88.624 26.681,88.359 26.606,88.123 C26.45,87.633 26.592,86.977 26.717,86.4 C26.766,86.175 26.812,85.961 26.841,85.763 C26.964,84.913 27.048,84.246 27.01,83.394 C26.943,81.916 26.548,80.412 26.167,78.956 C25.975,78.22 25.774,77.457 25.626,76.724 C25.085,74.057 24.759,71.891 24.598,69.909 C24.421,67.729 24.56,65.397 24.694,63.14 C24.726,62.593 24.757,62.037 24.785,61.482 C25.832,61.592 27.915,61.795 29.719,61.873 C29.665,62.075 29.613,62.276 29.558,62.481 Z M37.403,69.909 C37.243,71.889 36.917,74.055 36.376,76.724 C36.228,77.457 36.027,78.219 35.835,78.956 C35.453,80.412 35.06,81.917 34.992,83.394 C34.954,84.247 35.038,84.914 35.161,85.763 C35.19,85.961 35.236,86.177 35.285,86.402 C35.41,86.979 35.551,87.633 35.395,88.123 C35.325,88.345 35.219,88.622 35.028,88.795 C34.901,88.907 34.308,88.97 33.535,88.881 C32.786,88.795 32.356,88.622 32.29,88.528 C32.016,88.134 32.138,87.686 32.268,87.211 C32.33,86.987 32.392,86.756 32.407,86.536 C32.425,86.288 32.404,86.051 32.383,85.799 C32.357,85.479 32.328,85.148 32.378,84.774 C32.414,84.503 32.484,84.234 32.559,83.949 C32.634,83.663 32.711,83.367 32.75,83.071 C33.098,80.45 33.417,77.66 33.17,74.91 C33.118,74.339 33.042,73.764 32.968,73.206 C32.901,72.695 32.832,72.184 32.782,71.671 C32.643,70.245 32.643,68.804 32.781,67.384 C32.797,67.223 32.814,67.061 32.832,66.9 C32.898,66.279 32.968,65.636 32.935,64.996 C32.89,64.142 32.663,63.299 32.444,62.482 C32.389,62.277 32.337,62.076 32.286,61.874 C34.089,61.797 36.172,61.594 37.22,61.483 C37.248,62.037 37.279,62.592 37.311,63.138 C37.442,65.396 37.58,67.729 37.403,69.909 Z M38.582,49.018 C38.604,49.039 38.645,49.061 38.693,49.076 C38.684,49.231 38.675,49.389 38.665,49.55 C38.544,49.7 38.462,49.866 38.462,50.038 C38.462,50.098 38.49,50.154 38.538,50.189 C38.552,50.199 38.59,50.2 38.623,50.203 C38.34,54.44 37.792,60.03 37.692,61.036 C36.899,61.125 33.286,61.513 31.001,61.513 C28.716,61.513 25.103,61.125 24.31,61.036 C24.21,60.03 23.662,54.44 23.379,50.203 C23.411,50.2 23.45,50.199 23.464,50.189 C23.512,50.154 23.54,50.097 23.54,50.038 C23.539,49.867 23.458,49.702 23.337,49.55 C23.327,49.388 23.318,49.23 23.309,49.074 C23.357,49.059 23.398,49.037 23.423,49.016 C23.515,48.929 23.517,48.811 23.519,48.751 C23.527,47.596 23.52,46.407 23.227,45.257 C23.272,43.134 23.425,41.425 23.514,40.583 C24.306,41.037 27.073,42.443 31.002,42.443 C34.931,42.443 37.698,41.037 38.49,40.583 C38.58,41.424 38.732,43.132 38.777,45.254 C38.484,46.403 38.477,47.594 38.485,48.751 C38.484,48.803 38.484,48.925 38.582,49.018 Z M41.988,47.449 C41.728,47.961 41.46,48.448 41.167,48.938 C40.954,49.295 40.542,49.444 40.065,49.586 C39.984,49.61 39.301,49.744 38.912,49.813 C38.937,49.777 38.968,49.741 39.004,49.708 C39.117,49.602 39.266,49.524 39.409,49.449 L40.271,48.996 C40.312,48.975 40.342,48.94 40.359,48.897 C40.526,48.46 40.702,47.817 40.587,47.229 C40.541,46.988 40.474,46.748 40.387,46.513 C40.356,46.428 40.116,45.857 40.116,45.857 C40.09,45.795 40.031,45.751 39.964,45.744 C39.9,45.732 39.831,45.766 39.792,45.822 L39.599,46.098 C39.374,46.481 39.363,46.917 39.351,47.339 C39.348,47.437 39.345,47.534 39.34,47.63 C39.325,47.879 39.251,48.455 38.857,48.68 C38.849,47.466 38.847,46.215 39.206,45.047 C39.31,44.714 39.444,44.381 39.574,44.059 C39.69,43.771 39.811,43.474 39.911,43.172 C39.917,43.154 39.92,43.138 39.925,43.12 C40.191,43.054 40.467,43.003 40.704,43.003 C41.052,43.003 41.457,43.108 41.795,43.22 C41.8,43.541 41.808,43.873 41.827,44.231 C41.839,44.441 41.847,44.654 41.855,44.866 C41.881,45.567 41.91,46.291 42.048,47.001 C42.066,47.089 42.082,47.172 42.071,47.241 C42.062,47.307 42.025,47.379 41.988,47.449 Z M39.078,49.207 C39.083,49.123 39.088,49.04 39.092,48.958 C39.447,48.727 39.674,48.273 39.709,47.653 C39.715,47.553 39.718,47.453 39.721,47.351 C39.732,46.966 39.742,46.601 39.902,46.316 C39.962,46.458 40.022,46.604 40.037,46.643 C40.117,46.859 40.179,47.08 40.222,47.301 C40.295,47.677 40.23,48.171 40.036,48.699 L39.236,49.119 C39.186,49.145 39.132,49.177 39.078,49.207 Z" id="Shape"></path>
            </g>
        </g>
    </g>
</svg>