<?xml version="1.0" encoding="UTF-8"?>
<svg width="65px" height="56px" viewBox="0 0 65 56" version="1.1" xmlns="http://www.w3.org/2000/svg" xmlns:xlink="http://www.w3.org/1999/xlink">
    <!-- Generator: Sketch 42 (36781) - http://www.bohemiancoding.com/sketch -->
    <title>Shape</title>
    <desc>Created with Sketch.</desc>
    <defs></defs>
    <g id="Page-1" stroke="none" stroke-width="1" fill="none" fill-rule="evenodd">
        <g id="Artboard-3" fill-rule="nonzero" fill="#0068A8">
            <g id="tracking">
                <path d="M63.3,1.6 L51.7,1.6 C51.1,1.6 50.7,2 50.7,2.6 L50.7,35.2 L47.6,37.7 L47.6,10.2 C47.6,9.6 47.2,9.2 46.6,9.2 L34.9,9.2 C34.3,9.2 33.9,9.6 33.9,10.2 L33.9,34.6 L30.8,31.2 L30.8,1.1 C30.8,0.5 30.4,0.1 29.8,0.1 L18.1,0.1 C17.5,0.1 17.1,0.5 17.1,1.1 L17.1,29.2 L14,31.6 L14,26.9 C14,26.3 13.6,25.9 13,25.9 L1.4,25.9 C0.8,25.9 0.4,26.3 0.4,26.9 L0.4,54.4 C0.4,55 0.8,55.4 1.4,55.4 L13,55.4 C13.6,55.4 14,55 14,54.4 L14,34.1 L17.1,31.7 L17.1,54.4 C17.1,55 17.5,55.4 18.1,55.4 L29.7,55.4 C30.3,55.4 30.7,55 30.7,54.4 L30.7,34.2 L33.8,37.6 L33.8,54.4 C33.8,55 34.2,55.4 34.8,55.4 L46.4,55.4 C47,55.4 47.4,55 47.4,54.4 L47.4,40.3 L50.5,37.8 L50.5,54.5 C50.5,55.1 50.9,55.5 51.5,55.5 L63.1,55.5 C63.7,55.5 64.1,55.1 64.1,54.5 L64.1,2.6 C64.3,2 63.9,1.6 63.3,1.6 Z M12,53.4 L2.4,53.4 L2.4,27.9 L12,27.9 L12,33.1 L6.6,37.3 C6.2,37.6 6.1,38.3 6.4,38.7 C6.7,39.1 7.4,39.2 7.8,38.9 L12,35.7 L12,53.4 Z M19.1,2.1 L28.7,2.1 L28.7,29.1 L24.6,24.6 C24.2,24.2 23.7,24.2 23.3,24.5 L19.1,27.7 L19.1,2.1 Z M28.8,53.4 L19.2,53.4 L19.2,30.2 L23.9,26.6 L28.8,32 L28.8,53.4 Z M35.9,11.2 L45.5,11.2 L45.5,39.3 L41.3,42.7 L35.9,36.8 L35.9,11.2 Z M45.6,53.4 L36,53.4 L36,39.8 L40.6,44.8 C40.8,45 41.1,45.1 41.3,45.1 C41.5,45.1 41.7,45 41.9,44.9 L45.6,41.9 L45.6,53.4 L45.6,53.4 Z M62.3,53.4 L52.7,53.4 L52.7,36.1 L58.5,31.4 L58.5,32.7 C58.5,33.3 58.9,33.7 59.5,33.7 C60.1,33.7 60.5,33.3 60.5,32.7 L60.5,29.2 C60.5,28.6 60.1,28.2 59.5,28.2 L55.5,28.2 C54.9,28.2 54.5,28.6 54.5,29.2 C54.5,29.8 54.9,30.2 55.5,30.2 L56.7,30.2 L52.6,33.5 L52.6,3.5 L62.2,3.5 L62.3,53.4 L62.3,53.4 Z" id="Shape"></path>
            </g>
        </g>
    </g>
</svg>